<svg width="475" height="480" viewBox="0 0 475 480" fill="none" xmlns="http://www.w3.org/2000/svg">
<path d="M371.133 238.2L385.223 246.924L387.898 242.562C388.287 241.941 388.841 241.44 389.499 241.117C390.156 240.793 390.891 240.659 391.62 240.73C392.435 240.73 393.263 240.817 394.092 240.803C394.822 240.779 395.543 240.96 396.175 241.325C396.807 241.689 397.325 242.224 397.669 242.867L400.083 247.331L414.71 239.494L412.238 235.089C411.898 234.445 411.743 233.719 411.792 232.992C411.841 232.265 412.091 231.567 412.514 230.974C412.98 230.29 413.416 229.52 413.823 228.865C414.165 228.219 414.682 227.682 415.314 227.314C415.946 226.947 416.669 226.764 417.4 226.786L422.474 226.946L422.983 210.356L417.894 210.211C417.164 210.181 416.456 209.95 415.851 209.541C415.245 209.133 414.764 208.564 414.463 207.899C414.288 207.521 414.099 207.157 413.91 206.808C413.721 206.459 413.518 206.081 413.299 205.747C412.917 205.126 412.715 204.411 412.715 203.682C412.715 202.953 412.917 202.238 413.299 201.618L416.004 197.256L401.9 188.532L399.21 192.894C398.823 193.512 398.271 194.012 397.616 194.335C396.961 194.659 396.23 194.794 395.502 194.726C394.681 194.653 393.856 194.624 393.031 194.638C392.303 194.66 391.584 194.48 390.953 194.118C390.321 193.756 389.803 193.227 389.454 192.588L387.055 188.11L372.427 195.947L374.827 200.425C375.166 201.069 375.321 201.793 375.274 202.519C375.228 203.245 374.983 203.945 374.565 204.54C374.092 205.217 373.66 205.921 373.271 206.648C372.923 207.29 372.406 207.824 371.775 208.191C371.144 208.558 370.424 208.743 369.694 208.728L364.605 208.568L364.082 225.158L369.171 225.318C369.897 225.345 370.602 225.575 371.206 225.98C371.809 226.386 372.288 226.952 372.587 227.615C372.762 227.993 372.951 228.357 373.154 228.72C373.358 229.084 373.547 229.433 373.751 229.781C374.132 230.405 374.334 231.122 374.334 231.853C374.334 232.585 374.132 233.302 373.751 233.925L371.133 238.2ZM381.602 224.155C380.337 221.786 379.802 219.096 380.065 216.424C380.328 213.751 381.377 211.217 383.08 209.141C384.783 207.065 387.063 205.54 389.633 204.76C392.202 203.979 394.945 203.978 397.515 204.756C400.085 205.534 402.367 207.057 404.072 209.131C405.776 211.206 406.828 213.739 407.094 216.411C407.359 219.083 406.826 221.774 405.563 224.144C404.299 226.513 402.362 228.455 399.995 229.723C398.422 230.567 396.698 231.091 394.922 231.268C393.146 231.444 391.353 231.269 389.644 230.752C387.936 230.234 386.347 229.386 384.967 228.254C383.587 227.122 382.443 225.729 381.602 224.155Z" fill="#EBEBEB"/>
<path d="M429.366 186.612L435.182 196.688L438.265 194.9C438.711 194.645 439.219 194.519 439.733 194.537C440.247 194.555 440.745 194.716 441.173 195.002C441.641 195.319 442.126 195.61 442.627 195.874C443.099 196.093 443.5 196.442 443.783 196.879C444.066 197.317 444.22 197.825 444.226 198.346V201.894H455.858V198.346C455.852 197.843 455.984 197.347 456.241 196.914C456.497 196.48 456.868 196.126 457.312 195.889C457.814 195.627 458.299 195.336 458.766 195.016C459.193 194.731 459.692 194.57 460.206 194.552C460.719 194.534 461.228 194.659 461.674 194.915L464.756 196.703L470.572 186.627L467.49 184.838C467.047 184.579 466.685 184.2 466.446 183.745C466.207 183.29 466.1 182.777 466.138 182.265C466.138 181.988 466.138 181.698 466.138 181.407C466.138 181.116 466.138 180.84 466.138 180.564C466.1 180.051 466.207 179.538 466.446 179.083C466.685 178.628 467.047 178.25 467.49 177.99L470.602 176.202L464.786 166.125L461.703 167.914C461.256 168.166 460.748 168.29 460.235 168.272C459.722 168.254 459.224 168.095 458.795 167.812C458.329 167.492 457.843 167.2 457.341 166.94C456.897 166.703 456.526 166.348 456.27 165.915C456.013 165.481 455.881 164.986 455.887 164.482V160.935H444.255V164.482C444.251 164.993 444.106 165.492 443.837 165.925C443.568 166.359 443.184 166.71 442.728 166.94C442.226 167.2 441.741 167.492 441.274 167.812C440.846 168.095 440.348 168.254 439.835 168.272C439.322 168.29 438.814 168.166 438.366 167.914L435.284 166.125L429.468 176.202L432.565 177.975C433.002 178.239 433.358 178.616 433.596 179.067C433.835 179.518 433.946 180.025 433.917 180.534C433.917 180.825 433.917 181.116 433.917 181.392C433.917 181.669 433.917 181.974 433.917 182.25C433.948 182.763 433.837 183.275 433.596 183.729C433.355 184.184 432.993 184.562 432.55 184.824L429.366 186.612ZM440.489 181.407C440.492 179.523 441.053 177.683 442.102 176.118C443.151 174.554 444.64 173.335 446.382 172.617C448.123 171.899 450.038 171.713 451.885 172.084C453.732 172.454 455.428 173.364 456.757 174.697C458.087 176.031 458.992 177.73 459.356 179.578C459.721 181.426 459.53 183.34 458.806 185.079C458.083 186.819 456.86 188.304 455.292 189.348C453.724 190.392 451.882 190.948 449.998 190.945C448.747 190.945 447.508 190.698 446.353 190.219C445.197 189.739 444.147 189.036 443.264 188.15C442.381 187.264 441.681 186.212 441.205 185.055C440.729 183.898 440.485 182.658 440.489 181.407Z" fill="#EBEBEB"/>
<path d="M0.363434 47.29L10.934 65.7122L16.5755 62.4553C17.3894 61.9898 18.3167 61.7596 19.2538 61.7904C20.1909 61.8212 21.101 62.1118 21.8826 62.6297C22.7685 63.2131 23.6859 63.7471 24.6307 64.2291C25.4679 64.6456 26.1734 65.2859 26.6687 66.079C27.1641 66.8721 27.43 67.7869 27.4369 68.722V75.2359H48.738V68.722C48.7449 67.7869 49.0108 66.8721 49.5062 66.079C50.0016 65.2859 50.707 64.6456 51.5442 64.2291C52.489 63.7471 53.4065 63.2131 54.2923 62.6297C55.0739 62.1118 55.984 61.8212 56.9211 61.7904C57.8582 61.7596 58.7855 61.9898 59.5994 62.4553L65.2409 65.7122L75.8696 47.29L70.199 44.0331C69.3926 43.5559 68.7344 42.8642 68.298 42.0349C67.8616 41.2057 67.664 40.2716 67.7272 39.3366C67.7272 38.8132 67.7272 38.2898 67.7272 37.7663C67.7272 37.2429 67.7272 36.7194 67.7272 36.2105C67.6636 35.2792 67.8596 34.3485 68.2934 33.5219C68.7273 32.6954 69.3819 32.0053 70.1845 31.5287L75.8987 28.2281L65.27 9.8059L59.6139 13.0774C58.7977 13.5375 57.8702 13.7634 56.9338 13.73C55.9973 13.6967 55.0883 13.4054 54.3068 12.8884C53.4208 12.3097 52.5034 11.7806 51.5588 11.3035C50.721 10.8902 50.014 10.253 49.5162 9.46257C49.0183 8.67214 48.749 7.7593 48.738 6.8252V0.311279H27.4951V6.8252C27.4895 7.75873 27.2258 8.67252 26.7331 9.46547C26.2404 10.2584 25.5379 10.8996 24.7034 11.3181C23.7588 11.7952 22.8414 12.3243 21.9553 12.9029C21.1739 13.42 20.2648 13.7112 19.3284 13.7446C18.392 13.7779 17.4645 13.5521 16.6482 13.0919L10.934 9.82044L0.363434 28.2281L6.01949 31.4996C6.8248 31.9744 7.48237 32.6636 7.91883 33.4903C8.35529 34.317 8.55348 35.2487 8.49129 36.1815C8.49129 36.7049 8.49129 37.2284 8.49129 37.7518C8.49129 38.2752 8.49129 38.7987 8.49129 39.3221C8.55456 40.257 8.35697 41.1912 7.92053 42.0204C7.4841 42.8496 6.82597 43.5414 6.01949 44.0185L0.363434 47.29ZM20.7194 37.7663C20.7194 34.3154 21.7427 30.942 23.6599 28.0727C25.5772 25.2034 28.3022 22.9671 31.4904 21.6465C34.6786 20.3259 38.1868 19.9803 41.5714 20.6536C44.956 21.3268 48.0649 22.9886 50.505 25.4287C52.9452 27.8689 54.6069 30.9778 55.2802 34.3624C55.9534 37.747 55.6079 41.2552 54.2873 44.4434C52.9667 47.6316 50.7303 50.3566 47.861 52.2738C44.9917 54.191 41.6183 55.2143 38.1674 55.2143C35.8749 55.2162 33.6045 54.7663 31.4859 53.8904C29.3673 53.0144 27.4422 51.7295 25.8204 50.1091C24.1987 48.4887 22.9122 46.5646 22.0344 44.4467C21.1567 42.3289 20.7049 40.0589 20.7049 37.7663H20.7194Z" fill="#EBEBEB"/>
<path d="M390.428 76.21C389.083 85.2781 385.162 93.7691 379.132 100.674C373.102 107.578 365.215 112.606 356.411 115.159C347.606 117.712 338.254 117.683 329.465 115.076C320.677 112.468 312.822 107.392 306.834 100.45C300.847 93.5081 296.979 84.9929 295.69 75.9167C294.401 66.8406 295.746 57.5852 299.564 49.2509C303.382 40.9167 309.513 33.8542 317.229 28.9031C324.944 23.952 333.919 21.3205 343.086 21.3215V69.1872L390.428 76.21Z" fill="#EBEBEB"/>
<path d="M400.737 59.4309C400.74 61.7768 400.565 64.1197 400.213 66.4391L352.871 59.4309V11.5652C359.158 11.5614 365.384 12.7968 371.193 15.201C377.002 17.6051 382.28 21.1307 386.726 25.5762C391.171 30.0217 394.697 35.2999 397.101 41.1089C399.505 46.918 400.741 53.144 400.737 59.4309Z" fill="#DBDBDB"/>
<path d="M418.316 95.083H367.411V96.2898H418.316V95.083Z" fill="#C7C7C7"/>
<path d="M421.878 99.8521C421.053 99.8521 420.246 99.6073 419.56 99.1488C418.873 98.6903 418.338 98.0385 418.023 97.276C417.707 96.5135 417.624 95.6745 417.785 94.865C417.946 94.0555 418.344 93.3119 418.927 92.7283C419.511 92.1447 420.254 91.7473 421.064 91.5863C421.873 91.4253 422.712 91.5079 423.475 91.8237C424.237 92.1396 424.889 92.6745 425.348 93.3607C425.806 94.0469 426.051 94.8537 426.051 95.6791C426.047 96.7846 425.606 97.8438 424.825 98.6256C424.043 99.4073 422.984 99.8482 421.878 99.8521ZM421.878 92.7129C421.303 92.7129 420.741 92.8835 420.262 93.203C419.784 93.5225 419.411 93.9767 419.191 94.5081C418.971 95.0394 418.914 95.6241 419.026 96.1882C419.138 96.7523 419.415 97.2705 419.822 97.6772C420.228 98.0839 420.747 98.3608 421.311 98.473C421.875 98.5852 422.459 98.5277 422.991 98.3076C423.522 98.0875 423.976 97.7147 424.296 97.2365C424.615 96.7583 424.786 96.1961 424.786 95.6209C424.786 94.8497 424.48 94.11 423.934 93.5647C423.389 93.0193 422.649 92.7129 421.878 92.7129Z" fill="#C7C7C7"/>
<path d="M474.353 93.0039H434.819V94.7923H474.353V93.0039Z" fill="#C7C7C7"/>
<path d="M457.196 96.5662H434.819V98.3546H457.196V96.5662Z" fill="#C7C7C7"/>
<path d="M80.1298 316.687C80.1298 316.687 45.0448 311.758 53.2454 269.417C53.2454 269.417 92.4598 278.214 80.1298 316.687Z" fill="#EBEBEB"/>
<path d="M78.356 307.847C77.6691 305.704 76.8732 303.598 75.9714 301.536L75.8842 300.737C75.8842 300.155 75.7824 299.559 75.7388 298.977C75.637 297.712 75.5643 296.447 75.4916 295.182C75.3317 292.652 75.1717 290.123 75.1281 287.593C75.1281 287.566 75.1174 287.54 75.0983 287.521C75.0792 287.502 75.0533 287.491 75.0263 287.491C74.9993 287.491 74.9734 287.502 74.9544 287.521C74.9353 287.54 74.9245 287.566 74.9245 287.593C74.9245 290.137 74.9245 292.667 74.9245 295.197C74.9827 296.467 75.0554 297.732 75.1427 298.992C75.1427 299.283 75.1427 299.559 75.1427 299.835C73.1764 295.617 70.8204 291.591 68.1053 287.811C66.8985 286.124 65.6335 284.496 64.2667 282.94C62.9 281.384 61.3587 279.814 59.9047 278.229C59.8175 278.127 59.6576 278.229 59.7593 278.389C62.2735 281.179 64.536 284.186 66.5204 287.374C67.5818 288.988 68.5851 290.646 69.5447 292.333L69.2249 292.202L67.9744 291.693L65.0664 290.617L59.6139 288.494C59.5122 288.494 59.4249 288.654 59.6139 288.698C61.4751 289.439 63.3216 290.224 65.1682 291.024L67.8872 292.187C68.3379 292.391 68.8032 292.565 69.254 292.754C69.5508 292.9 69.8629 293.012 70.1845 293.089C70.897 294.354 71.6385 295.633 72.2492 296.927C73.8749 300.234 75.3071 303.632 76.5385 307.105C76.6112 307.338 76.6984 307.585 76.7857 307.832C75.8571 307.27 74.8846 306.784 73.8777 306.378L70.2427 304.721C67.7854 303.601 65.3427 302.452 62.9727 301.115C62.8563 301.115 62.74 301.246 62.8709 301.304C65.2845 302.627 67.64 304.023 70.0537 305.331C71.2605 305.986 72.4818 306.625 73.7177 307.222C74.7367 307.833 75.8457 308.279 77.0038 308.545C78.1786 311.758 78.955 315.103 79.3156 318.505C79.6937 323.288 79.65 328.116 79.7664 332.914C79.7664 333.001 79.8827 333.001 79.8972 332.914C80.2462 328.552 80.4352 324.19 80.4643 319.828C80.4073 315.747 79.6955 311.702 78.356 307.847Z" fill="#C7C7C7"/>
<path d="M72.9617 282.94C72.6204 285.41 72.5036 287.907 72.6127 290.399H72.7145C72.8599 287.927 72.8744 285.455 73.1652 282.983C73.1798 282.852 72.9762 282.794 72.9617 282.94Z" fill="#C7C7C7"/>
<path d="M62.929 285.063C61.3608 284.463 59.8518 283.718 58.4216 282.838C58.3053 282.765 58.189 282.954 58.3053 283.027C59.7124 283.973 61.2506 284.708 62.8709 285.208C62.9581 285.223 63.0163 285.092 62.929 285.063Z" fill="#C7C7C7"/>
<path d="M81.2494 383.935C81.2494 380.053 81.1477 376.185 81.104 372.303C81.104 359.42 80.9296 346.552 80.6969 333.67C80.5224 323.453 80.285 313.232 79.9845 303.005C79.9824 302.978 79.9733 302.951 79.958 302.928C79.9428 302.905 79.9218 302.887 79.8972 302.874V294.499C79.8972 294.427 79.81 294.397 79.7227 294.397C79.6355 294.397 79.5628 294.397 79.5628 294.514C79.5628 297.305 79.5628 300.097 79.5628 302.903C79.5538 302.921 79.5492 302.941 79.5492 302.962C79.5492 302.982 79.5538 303.002 79.5628 303.02C79.0394 321.209 78.5886 339.37 78.4723 357.603C78.4723 361.311 78.4723 365.004 78.4723 368.711C78.3463 380.576 78.2978 392.441 78.3269 404.305V409.961C78.3269 420.823 78.4432 431.67 78.4432 442.531C78.4432 443.113 79.0975 443.403 79.7954 443.432C80.4934 443.462 81.4094 443.156 81.4094 442.487C81.4094 430.506 81.4966 418.54 81.4966 406.574C81.2785 398.998 81.3076 391.481 81.2494 383.935Z" fill="#C7C7C7"/>
<path d="M72.7145 376.781C72.7145 376.781 63.9905 357.646 45.9463 357.225C27.9022 356.803 9.79988 384.051 9.79988 384.051C9.79988 384.051 28.7019 398.431 48.5054 393.327C67.64 388.398 72.7145 376.781 72.7145 376.781Z" fill="#EBEBEB"/>
<path d="M76.364 379.689C74.2419 377.127 71.5198 375.129 68.4397 373.873C67.9069 373.433 67.3378 373.039 66.7385 372.695C66.0697 372.259 65.4008 371.823 64.7465 371.372L60.6172 368.682C57.8255 366.836 55.0047 365.047 52.2712 363.128C52.1694 363.128 52.0531 363.23 52.1403 363.302C54.8157 365.265 57.4475 367.272 60.1664 369.118C61.6204 370.093 62.9581 371.067 64.383 372.026L65.4154 372.739C64.921 372.579 64.4121 372.448 63.9614 372.332C61.2763 371.707 58.532 371.37 55.7753 371.329C54.4958 370.892 53.1581 370.572 51.8641 370.194C49.7994 369.613 47.7202 369.075 45.641 368.537C41.5407 367.49 37.4113 366.559 33.282 365.629C33.1511 365.629 33.1075 365.789 33.282 365.832C37.3241 366.937 41.3371 368.13 45.3647 369.264L51.1807 370.907L52.6347 371.343C47.305 371.588 42.0505 372.698 37.0769 374.629C32.2406 376.551 27.652 379.045 23.4093 382.059C23.293 382.132 23.4093 382.321 23.5111 382.248C28.2796 379.366 33.4081 377.127 38.7635 375.589L38.2401 376.069L35.9719 378.22C34.5179 379.674 32.933 381.128 31.4499 382.582C31.3481 382.684 31.4499 382.815 31.6099 382.728C33.1656 381.39 34.6923 380.038 36.2336 378.671L38.5018 376.665L39.6505 375.618L40.014 375.298C42.5523 374.621 45.1311 374.106 47.7347 373.757C51.1597 373.321 54.6232 373.277 58.0581 373.626C57.8691 373.858 57.6801 374.091 57.4911 374.295L56.008 375.981C54.932 377.217 53.8852 378.468 52.8383 379.718C50.6864 382.263 48.738 384.967 46.6151 387.526C46.5959 387.547 46.5858 387.575 46.5872 387.604C46.5885 387.633 46.6012 387.659 46.6224 387.679C46.6436 387.698 46.6716 387.708 46.7003 387.707C46.7289 387.705 46.7558 387.693 46.7751 387.671C49.0288 385.171 51.457 382.815 53.6961 380.3L57.0403 376.505C57.5638 375.909 58.0727 375.298 58.5816 374.702C58.8724 374.367 59.1632 374.048 59.4103 373.699C59.7448 373.699 60.0792 373.699 60.3991 373.815C65.0664 374.527 69.9228 375.865 73.6014 378.962C75.3531 380.408 76.719 382.266 77.5766 384.37C78.4343 386.474 78.757 388.757 78.5159 391.016C78.5159 391.408 79.0975 391.495 79.1993 391.117C79.6595 389.124 79.6426 387.05 79.1499 385.064C78.6572 383.078 77.7027 381.236 76.364 379.689Z" fill="#C7C7C7"/>
<path d="M47.0077 379.267L42.6457 384.182C41.1907 385.721 39.8311 387.348 38.5745 389.053C38.5745 389.053 38.5745 389.184 38.6909 389.14C40.2505 387.64 41.7078 386.037 43.0529 384.342L47.2113 379.413C47.2306 379.386 47.2384 379.352 47.2329 379.319C47.2275 379.287 47.2092 379.257 47.1822 379.238C47.1552 379.219 47.1217 379.211 47.089 379.217C47.0563 379.222 47.027 379.24 47.0077 379.267Z" fill="#C7C7C7"/>
<path d="M30.1123 376.083C27.6986 375.981 25.2704 376.083 22.8423 375.749C22.8153 375.749 22.7894 375.759 22.7703 375.778C22.7512 375.797 22.7405 375.823 22.7405 375.85C22.7405 375.877 22.7512 375.903 22.7703 375.922C22.7894 375.941 22.8153 375.952 22.8423 375.952C25.2599 376.156 27.6868 376.229 30.1123 376.17V376.083Z" fill="#C7C7C7"/>
<path d="M70.4026 349.199C70.4026 349.199 49.7703 350.507 40.1739 336.912C30.5775 323.317 32.744 303.877 32.744 303.877C32.744 303.877 54.4086 306.509 63.0163 316.28C71.624 326.051 70.4026 349.199 70.4026 349.199Z" fill="#EBEBEB"/>
<path d="M80.0717 369.54C79.3593 367.33 78.4723 365.178 77.6435 362.997C76.8148 360.816 75.986 358.853 75.0845 356.818C73.2415 352.657 71.1738 348.599 68.8904 344.662C67.4364 342.147 65.8807 339.719 64.2813 337.319C64.2813 336.956 64.165 336.592 64.1068 336.214C64.0196 335.589 63.9323 334.949 63.8305 334.31C63.627 333.001 63.3943 331.692 63.1762 330.398C62.6964 327.49 62.1148 324.713 61.7222 321.863C61.7222 321.733 61.4896 321.733 61.5041 321.863C61.9258 324.684 62.202 327.519 62.5946 330.326C62.7836 331.78 62.9727 333.103 63.1762 334.484C63.2635 334.979 63.3362 335.487 63.4234 335.938C60.2842 331.338 56.886 326.921 53.2454 322.707C52.751 322.125 52.2421 321.573 51.7914 321.02C51.7914 320.86 51.6605 320.7 51.6024 320.54L51.1516 319.363C50.8463 318.548 50.5555 317.72 50.2647 316.905C49.6831 315.291 49.1597 313.663 48.7235 312.005C48.7235 311.86 48.4908 311.933 48.5199 312.005C48.9416 313.692 49.3778 315.379 49.8721 317.051C50.1048 317.865 50.381 318.665 50.6573 319.45L50.8027 319.857C48.1709 316.949 45.4229 314.215 42.6457 311.467C42.6245 311.448 42.5965 311.438 42.5679 311.439C42.5393 311.441 42.5123 311.453 42.4931 311.475C42.4738 311.496 42.4637 311.524 42.4651 311.552C42.4665 311.581 42.4791 311.608 42.5003 311.627C47.799 317.212 52.66 323.196 57.0403 329.526C56.5643 329.369 56.0787 329.242 55.5863 329.148C54.0015 328.843 52.3875 328.61 50.7881 328.406C47.4294 327.985 44.0707 327.549 40.7265 327.025C40.5956 327.025 40.5374 327.214 40.7265 327.229C43.9253 327.868 47.0804 328.581 50.2647 329.308C51.7187 329.657 53.2599 329.948 54.7721 330.253C56.0003 330.517 57.2098 330.862 58.3926 331.285C58.727 331.751 59.0759 332.23 59.3958 332.739C60.8498 334.935 62.3038 337.189 63.7578 339.457L61.6495 339.035C60.0647 338.73 58.4653 338.439 56.8659 338.177C53.7107 337.668 50.57 337.116 47.4585 336.403C47.3276 336.403 47.2694 336.592 47.4585 336.622C50.6136 337.363 53.7398 338.221 56.8659 339.05C58.3199 339.457 59.9047 339.82 61.4314 340.169L63.7287 340.664C64.0354 340.736 64.3462 340.789 64.6593 340.824C67.6642 345.67 70.4801 350.667 73.107 355.814C74.2557 358.053 75.3753 360.322 76.4367 362.605C77.4981 364.887 78.4869 367.33 79.5047 369.715C79.4901 370.253 80.2462 370.064 80.0717 369.54Z" fill="#C7C7C7"/>
<path d="M58.916 322.14C58.5234 320.177 58.1163 318.214 57.6801 316.251C57.6801 316.12 57.4474 316.251 57.4765 316.251C57.8691 318.185 58.2326 320.119 58.5816 322.067C58.8704 324.025 59.2635 325.967 59.7593 327.883C59.6152 325.951 59.3334 324.032 58.916 322.14Z" fill="#C7C7C7"/>
<path d="M46.935 321.558C45.9754 321.093 44.9576 320.7 44.027 320.322L42.4567 319.697L41.6716 319.377C41.362 319.3 41.0672 319.172 40.7991 318.999C40.6392 318.883 40.5374 319.159 40.6974 319.188C41.0043 319.266 41.2982 319.389 41.5698 319.552L42.3549 319.901L43.8089 320.569C44.8008 321.023 45.8151 321.426 46.8478 321.776C46.8767 321.788 46.9091 321.787 46.9377 321.775C46.9663 321.763 46.9889 321.74 47.0005 321.711C47.012 321.682 47.0117 321.65 46.9994 321.621C46.9871 321.592 46.964 321.57 46.935 321.558Z" fill="#C7C7C7"/>
<path d="M91.5147 332.972C91.5147 332.972 104.005 309.708 122.994 306.044C141.983 302.38 153.6 321.936 153.6 321.936C153.6 321.936 139.758 339.631 122.325 342.728C104.892 345.825 91.5147 332.972 91.5147 332.972Z" fill="#EBEBEB"/>
<path d="M135.716 316.498C130.771 315.829 125.755 315.888 120.827 316.673C121.104 316.513 121.394 316.353 121.671 316.222L125.887 314.041C128.795 312.587 131.703 310.915 134.8 309.679C134.818 309.677 134.836 309.671 134.852 309.661C134.867 309.652 134.88 309.638 134.889 309.623C134.899 309.607 134.904 309.589 134.905 309.571C134.907 309.552 134.903 309.534 134.896 309.517C134.889 309.5 134.878 309.486 134.864 309.474C134.85 309.462 134.833 309.454 134.815 309.45C134.797 309.446 134.779 309.446 134.761 309.45C134.743 309.455 134.727 309.463 134.713 309.475C131.805 310.929 128.664 312.02 125.684 313.401C124.23 314.085 122.776 314.855 121.322 315.568C120.377 316.062 119.344 316.527 118.414 317.123C114.238 317.965 110.18 319.313 106.331 321.136L108.715 318.548C110.475 316.615 112.22 314.579 114.168 312.805C114.27 312.718 114.168 312.572 114.008 312.66C112.031 314.463 109.922 316.135 108.003 318.01C107.058 318.926 106.171 319.871 105.299 320.846C104.862 321.325 104.426 321.82 104.019 322.3C97.498 325.796 91.8318 330.692 87.4274 336.638C83.0229 342.583 79.9896 349.43 78.545 356.687C78.545 356.818 78.7195 356.89 78.7486 356.687C81.4274 347.801 86.2222 339.699 92.7215 333.074C99.7055 325.941 108.503 320.849 118.166 318.345C123.896 316.891 129.819 316.352 135.716 316.745C135.746 316.711 135.762 316.667 135.762 316.622C135.762 316.576 135.746 316.533 135.716 316.498Z" fill="#C7C7C7"/>
<path d="M124.68 308.181C123.229 309.036 121.822 309.963 120.464 310.958C119.144 311.966 117.918 313.09 116.8 314.317C116.712 314.419 116.8 314.564 116.974 314.463C118.225 313.372 119.49 312.282 120.798 311.235C122.074 310.189 123.409 309.218 124.797 308.327C124.813 308.322 124.828 308.314 124.84 308.302C124.853 308.291 124.862 308.276 124.867 308.26C124.873 308.244 124.874 308.227 124.871 308.21C124.868 308.194 124.861 308.178 124.85 308.165C124.84 308.151 124.826 308.141 124.81 308.134C124.795 308.128 124.778 308.125 124.761 308.127C124.744 308.129 124.728 308.134 124.714 308.144C124.7 308.153 124.688 308.166 124.68 308.181Z" fill="#C7C7C7"/>
<path d="M135.106 312.122C134.408 312.427 133.652 312.674 132.983 312.965L130.874 313.837C130.715 313.91 130.787 314.157 130.874 314.084L133.07 313.212L135.178 312.311C135.295 312.282 135.236 312.078 135.106 312.122Z" fill="#C7C7C7"/>
<path d="M89.0138 362.314C89.0138 362.314 92.358 385.447 109.806 393.545C127.254 401.644 148.41 393.545 148.41 393.545C148.41 393.545 140.006 343.499 89.0138 362.314Z" fill="#EBEBEB"/>
<path d="M136.371 378.497C134.757 378.308 133.172 378.046 131.572 377.755L129.246 377.305L128.025 377.057C127.545 376.621 127.094 376.185 126.571 375.763C123.272 372.862 119.709 370.277 115.927 368.043C113.87 366.829 111.744 365.736 109.559 364.771H109.879L115.607 365.018C119.431 365.193 123.241 365.28 127.05 365.527C127.196 365.527 127.181 365.324 127.05 365.309C123.226 365.047 119.417 364.64 115.593 364.306L110.024 363.811L107.116 363.564L106.389 363.477C105.386 363.114 104.397 362.765 103.379 362.445C98.6373 360.827 93.5417 360.545 88.6503 361.63C84.2883 362.75 79.9263 365.629 78.7777 370.238C78.7642 370.275 78.7658 370.315 78.7821 370.351C78.7985 370.386 78.8283 370.414 78.8649 370.427C78.9015 370.441 78.942 370.439 78.9775 370.423C79.0129 370.406 79.0404 370.377 79.0539 370.34C80.6824 366.487 84.9572 364.524 88.8248 363.753C91.4191 363.257 94.0786 363.203 96.6909 363.593C96.8799 364.786 97.1768 365.959 97.5779 367.097L99.0319 371.968C100.021 375.225 101.111 378.439 102.071 381.696C102.071 381.826 102.318 381.768 102.274 381.696C101.475 378.439 100.82 375.167 100.006 371.91C99.628 370.325 99.2209 368.726 98.8283 367.127C98.602 366.014 98.3058 364.916 97.9414 363.841C99.4658 364.117 100.975 364.471 102.463 364.902C105.15 365.7 107.783 366.671 110.344 367.81C110.606 369.453 110.969 371.096 111.347 372.724C111.827 374.76 112.351 376.781 113.005 378.773C113.005 378.904 113.223 378.846 113.194 378.773C113.186 378.647 113.186 378.521 113.194 378.395C112.816 376.505 112.394 374.615 111.987 372.724C111.667 371.27 111.376 369.671 111.042 368.159C113.212 369.113 115.329 370.186 117.381 371.372C117.381 371.837 117.541 372.317 117.614 372.754C117.73 373.539 117.876 374.338 118.021 375.124C118.356 376.912 118.704 378.686 119.141 380.445C119.922 383.858 120.917 387.219 122.121 390.507C122.121 390.507 122.121 390.594 122.121 390.638L122.209 390.754C122.281 390.841 122.412 390.754 122.383 390.652C121.583 387.221 120.667 383.818 119.911 380.387C119.533 378.671 119.155 376.941 118.806 375.225L118.326 372.637C118.326 372.39 118.239 372.128 118.196 371.852C120.537 373.231 122.8 374.74 124.971 376.374C128.721 379.192 132.192 382.361 135.338 385.84C135.469 385.985 135.716 385.84 135.6 385.636C134.262 383.891 132.954 382.19 131.456 380.576C130.569 379.645 129.668 378.729 128.737 377.843H129.028L131.485 378.206C133.085 378.424 134.698 378.584 136.312 378.759C136.443 378.715 136.501 378.511 136.371 378.497Z" fill="#C7C7C7"/>
<path d="M124.142 386.334C124.142 386.145 124.142 385.941 124.041 385.738C123.939 385.534 123.866 385.243 123.837 384.981C123.488 383.44 123.183 381.884 122.907 380.329C122.899 380.31 122.886 380.294 122.869 380.282C122.852 380.271 122.832 380.265 122.812 380.265C122.792 380.265 122.772 380.271 122.755 380.282C122.738 380.294 122.725 380.31 122.718 380.329C122.821 382.399 123.268 384.439 124.041 386.363C124.041 386.363 124.172 386.363 124.157 386.363L124.142 386.334Z" fill="#C7C7C7"/>
<path d="M109.588 385.912C109.588 385.839 109.588 385.81 109.486 385.81C108.992 383.76 108.527 381.71 108.105 379.645C107.872 378.569 107.654 377.479 107.436 376.403C107.334 375.807 107.218 375.225 107.116 374.643C107.065 374.142 106.938 373.652 106.738 373.189C106.731 373.171 106.717 373.154 106.701 373.143C106.684 373.132 106.664 373.125 106.644 373.125C106.623 373.125 106.603 373.132 106.586 373.143C106.57 373.154 106.557 373.171 106.549 373.189C106.536 374.243 106.683 375.292 106.985 376.301C107.203 377.435 107.421 378.555 107.669 379.674C108.178 381.957 108.745 384.24 109.384 386.479C109.384 386.61 109.632 386.581 109.617 386.479C109.602 386.377 109.588 386.13 109.588 385.912Z" fill="#C7C7C7"/>
<path d="M134.786 371.837C131.601 371.401 128.432 370.936 125.247 370.558C125.117 370.558 125.058 370.747 125.247 370.761C128.417 371.227 131.601 371.619 134.786 372.041C134.858 372.055 134.917 371.852 134.786 371.837Z" fill="#C7C7C7"/>
<path d="M80.1153 308.065C80.1153 308.065 69.4721 261.377 119.635 242.475C119.635 242.475 133.535 303.936 80.1153 308.065Z" fill="#EBEBEB"/>
<path d="M90.904 281.588L91.442 281.253L94.35 279.668L100.166 276.411C103.99 274.274 107.77 272.049 111.624 269.956C111.754 269.883 111.624 269.708 111.522 269.767C107.654 271.875 103.728 273.838 99.8897 275.888L94.0737 278.927L91.7182 280.177C93.3903 276.993 95.1788 273.881 97.1417 270.886C99.7734 266.888 102.638 263.078 105.633 259.356C105.666 259.323 105.684 259.279 105.684 259.232C105.684 259.186 105.666 259.142 105.633 259.109C105.6 259.076 105.556 259.058 105.509 259.058C105.463 259.058 105.419 259.076 105.386 259.109C100.977 263.388 97.0741 268.159 93.7539 273.329C93.7539 273.169 93.7539 273.009 93.7539 272.849C93.7539 271.686 93.8411 270.523 93.8556 269.36C93.8556 267.091 93.7829 264.808 93.8556 262.526C93.8556 262.38 93.6521 262.395 93.6375 262.526C93.5503 264.779 93.274 267.004 93.1432 269.258C93.1432 270.377 93.0414 271.497 92.9978 272.616C92.9978 273.213 92.9251 273.911 92.9978 274.565C91.9654 276.208 90.9622 277.88 90.0898 279.567C88.4118 282.613 86.9116 285.754 85.5969 288.974C85.5969 287.811 85.4806 286.648 85.4079 285.484C85.2625 282.925 84.9571 280.381 84.8408 277.822C84.8408 277.795 84.8301 277.769 84.811 277.75C84.7919 277.731 84.766 277.72 84.739 277.72C84.712 277.72 84.6861 277.731 84.6671 277.75C84.648 277.769 84.6373 277.795 84.6373 277.822C84.6373 280.381 84.6373 282.94 84.6373 285.499C84.6373 286.764 84.6373 288.043 84.7972 289.323L84.8844 290.777C83.2808 294.949 82.0118 299.242 81.0895 303.616C80.229 308.282 79.6078 312.99 79.2284 317.72C79.2284 317.72 79.2284 317.72 79.2284 317.72C79.7665 313.466 80.6565 309.264 81.8892 305.157C82.5144 302.947 83.1687 300.795 83.8812 298.585C85.9604 297.596 87.9669 296.375 89.9734 295.255C91.98 294.136 94.1755 292.958 96.2838 291.809C100.457 289.512 104.644 287.171 108.963 285.15C109.079 285.15 108.963 284.903 108.846 284.961C104.484 286.953 100.122 288.829 95.7604 290.995C93.623 292.056 91.5147 293.205 89.4355 294.383C87.6907 295.372 85.9022 296.346 84.2301 297.48C84.7245 296.026 85.2189 294.572 85.7859 293.118C87.2949 289.19 89.0031 285.342 90.904 281.588Z" fill="#C7C7C7"/>
<path d="M86.7165 270.915C86.7165 270.77 86.4839 270.77 86.4984 270.915C86.6729 273.576 86.7601 276.237 87.0509 278.898C87.0509 279.043 87.2836 279.043 87.2836 278.898C87.1963 276.222 86.9055 273.576 86.7165 270.915Z" fill="#C7C7C7"/>
<path d="M110.766 279.77C107.625 281.035 104.455 282.227 101.329 283.536C101.242 283.536 101.329 283.725 101.329 283.681C104.499 282.504 107.625 281.209 110.78 279.974C110.955 279.988 110.897 279.77 110.766 279.77Z" fill="#C7C7C7"/>
<path d="M115.535 258.294C112.462 259.701 109.48 261.299 106.607 263.078C106.462 263.165 106.607 263.383 106.753 263.296C109.661 261.595 112.569 259.967 115.651 258.469C115.767 258.411 115.622 258.236 115.535 258.294Z" fill="#C7C7C7"/>
<path d="M104.848 479.71H54.5104L59.6285 409.045H99.7443L104.848 479.71Z" fill="#DBDBDB"/>
<path d="M58.5961 423.367H100.777L99.7298 409.045H59.6285L58.5961 423.367Z" fill="#C7C7C7"/>
<path d="M55.3101 416.824H104.048V404.523H55.3101V416.824Z" fill="#DBDBDB"/>
</svg>
