<svg width="403" height="506" viewBox="0 0 403 506" fill="none" xmlns="http://www.w3.org/2000/svg">
<path d="M135.122 186.161C133.814 186.161 85.163 208.611 82.2841 263.907C79.6378 314.797 114.781 363.026 119.317 359.871C124.872 355.959 115.435 324.291 126.238 288.057C130.062 275.204 146.813 263.805 146.813 263.805L135.122 186.161Z" fill="#37B44D"/>
<path opacity="0.1" d="M146.827 263.761C141.934 267.226 137.464 271.252 133.508 275.757C126.238 259.603 112.774 229.447 104.05 209.905C118.3 193.431 134.381 186.161 135.122 186.161L146.827 263.761Z" fill="black"/>
<path d="M258.945 186.249C260.239 186.249 308.861 208.771 311.667 264.067C314.241 314.957 279.01 363.142 274.488 359.943C268.934 356.018 278.429 324.364 267.684 288.116C263.874 275.262 247.124 263.834 247.124 263.834L258.945 186.249Z" fill="#37B44D"/>
<path opacity="0.1" d="M290.162 210.254C281.351 229.97 267.829 260.184 260.675 276.149C256.665 271.533 252.121 267.408 247.139 263.863L258.945 186.263C259.687 186.234 275.899 193.606 290.162 210.254Z" fill="black"/>
<path d="M233.82 313.372H160.407C160.407 313.372 125.831 251.533 129.873 177.815C131.938 141.014 141.505 103.967 153.137 73.3017C169.102 30.903 188.804 0.87793 197.31 0.87793C205.816 0.87793 225.489 30.9467 241.395 73.3162C252.896 103.981 262.464 141.058 264.47 177.859C268.556 251.577 233.82 313.372 233.82 313.372Z" fill="#EBEBEB"/>
<path d="M241.148 168.306C241.139 176.68 238.648 184.864 233.988 191.822C229.329 198.78 222.71 204.2 214.97 207.397C207.23 210.593 198.716 211.423 190.505 209.781C182.293 208.139 174.753 204.098 168.838 198.171C162.922 192.243 158.897 184.695 157.272 176.48C155.647 168.265 156.494 159.752 159.707 152.019C162.919 144.286 168.353 137.679 175.321 133.033C182.288 128.388 190.477 125.913 198.851 125.922C204.412 125.926 209.918 127.025 215.053 129.158C220.189 131.29 224.854 134.414 228.782 138.35C232.71 142.286 235.824 146.957 237.946 152.097C240.068 157.237 241.156 162.745 241.148 168.306Z" fill="#C7C7C7"/>
<path d="M239.65 164.002C239.645 172.375 237.157 180.558 232.501 187.517C227.845 194.476 221.23 199.899 213.493 203.099C205.756 206.299 197.243 207.133 189.032 205.496C180.821 203.859 173.279 199.825 167.36 193.902C161.442 187.979 157.412 180.435 155.781 172.223C154.15 164.01 154.99 155.498 158.195 147.763C161.401 140.028 166.828 133.417 173.79 128.766C180.752 124.115 188.937 121.633 197.31 121.633C202.873 121.631 208.382 122.725 213.522 124.854C218.662 126.983 223.331 130.105 227.264 134.04C231.196 137.975 234.314 142.647 236.44 147.788C238.565 152.929 239.656 158.439 239.65 164.002Z" fill="#37B44D"/>
<path d="M226.547 166.899C228.152 150.766 216.374 136.386 200.24 134.782C184.107 133.177 169.727 144.955 168.123 161.088C166.518 177.222 178.296 191.601 194.429 193.206C210.563 194.811 224.942 183.033 226.547 166.899Z" fill="white"/>
<path d="M226.681 163.959C226.689 167.6 226.013 171.21 224.689 174.602L207.968 191.352C202.06 193.634 195.574 193.95 189.473 192.253L225.605 156.122C226.318 158.673 226.68 161.31 226.681 163.959Z" fill="#EBEBEB"/>
<path d="M201.672 134.922L168.23 168.277C168.017 166.833 167.91 165.375 167.91 163.915C167.937 156.138 171.047 148.689 176.559 143.202C182.07 137.715 189.533 134.638 197.31 134.646C198.769 134.632 200.227 134.724 201.672 134.922Z" fill="#EBEBEB"/>
<path d="M223.017 149.753L183.104 189.651C182.331 189.209 181.584 188.723 180.865 188.197L221.577 147.485C222.115 148.212 222.581 148.968 223.017 149.753Z" fill="#EBEBEB"/>
<path d="M241.424 73.3162H153.181C169.102 30.903 188.804 0.87793 197.31 0.87793C205.816 0.87793 225.518 30.9467 241.424 73.3162Z" fill="#37B44D"/>
<path d="M168.375 64.1415C168.375 64.6304 168.23 65.1082 167.959 65.5147C167.687 65.9212 167.301 66.238 166.85 66.4251C166.398 66.6122 165.901 66.6612 165.421 66.5658C164.942 66.4704 164.501 66.235 164.156 65.8893C163.81 65.5436 163.575 65.1032 163.479 64.6237C163.384 64.1442 163.433 63.6472 163.62 63.1956C163.807 62.7439 164.124 62.3579 164.53 62.0863C164.937 61.8147 165.415 61.6697 165.904 61.6697C166.228 61.6697 166.55 61.7336 166.85 61.8578C167.149 61.9821 167.422 62.1641 167.651 62.3936C167.881 62.6232 168.063 62.8957 168.187 63.1956C168.311 63.4955 168.375 63.8169 168.375 64.1415Z" fill="white"/>
<path d="M184.079 64.1561C184.079 64.645 183.934 65.1229 183.662 65.5294C183.39 65.9359 183.004 66.2527 182.553 66.4398C182.101 66.6269 181.604 66.6758 181.125 66.5804C180.645 66.4851 180.205 66.2497 179.859 65.904C179.513 65.5583 179.278 65.1178 179.183 64.6384C179.087 64.1589 179.136 63.6619 179.323 63.2102C179.51 62.7585 179.827 62.3725 180.234 62.1009C180.64 61.8293 181.118 61.6843 181.607 61.6843C181.931 61.6843 182.253 61.7483 182.553 61.8725C182.853 61.9967 183.125 62.1788 183.355 62.4083C183.584 62.6378 183.766 62.9103 183.89 63.2102C184.015 63.5101 184.079 63.8315 184.079 64.1561Z" fill="white"/>
<path d="M199.767 64.1705C199.764 64.6593 199.617 65.1364 199.343 65.5412C199.069 65.9461 198.681 66.2606 198.228 66.4451C197.775 66.6295 197.278 66.6755 196.799 66.5773C196.32 66.4791 195.881 66.2411 195.537 65.8934C195.194 65.5457 194.961 65.1039 194.868 64.6239C194.776 64.1438 194.828 63.6471 195.017 63.1966C195.207 62.746 195.526 62.3618 195.934 62.0926C196.342 61.8234 196.821 61.6813 197.31 61.6841C197.635 61.686 197.956 61.7519 198.255 61.8778C198.554 62.0038 198.825 62.1875 199.054 62.4184C199.282 62.6492 199.462 62.9228 199.585 63.2234C199.707 63.5241 199.769 63.8459 199.767 64.1705Z" fill="white"/>
<path d="M215.47 64.1705C215.47 64.6594 215.325 65.1373 215.054 65.5438C214.782 65.9503 214.396 66.2671 213.945 66.4542C213.493 66.6412 212.996 66.6902 212.516 66.5948C212.037 66.4994 211.597 66.264 211.251 65.9183C210.905 65.5727 210.67 65.1322 210.574 64.6528C210.479 64.1733 210.528 63.6763 210.715 63.2246C210.902 62.7729 211.219 62.3869 211.625 62.1153C212.032 61.8437 212.51 61.6987 212.999 61.6987C213.654 61.6987 214.283 61.9591 214.747 62.4227C215.21 62.8863 215.47 63.515 215.47 64.1705Z" fill="white"/>
<path d="M231.174 64.1852C231.174 64.6741 231.029 65.152 230.757 65.5584C230.486 65.9649 230.099 66.2817 229.648 66.4688C229.196 66.6559 228.699 66.7049 228.22 66.6095C227.74 66.5141 227.3 66.2787 226.954 65.933C226.608 65.5873 226.373 65.1469 226.278 64.6674C226.182 64.1879 226.231 63.6909 226.418 63.2393C226.605 62.7876 226.922 62.4016 227.329 62.13C227.735 61.8584 228.213 61.7134 228.702 61.7134C229.357 61.7134 229.986 61.9738 230.45 62.4374C230.913 62.9009 231.174 63.5296 231.174 64.1852Z" fill="white"/>
<path d="M168.23 302.03C168.23 302.519 168.085 302.997 167.813 303.404C167.542 303.81 167.156 304.127 166.704 304.314C166.252 304.501 165.755 304.55 165.276 304.455C164.796 304.359 164.356 304.124 164.01 303.778C163.665 303.433 163.429 302.992 163.334 302.513C163.238 302.033 163.287 301.536 163.475 301.084C163.662 300.633 163.978 300.247 164.385 299.975C164.791 299.704 165.269 299.559 165.758 299.559C166.414 299.559 167.042 299.819 167.506 300.283C167.97 300.746 168.23 301.375 168.23 302.03Z" fill="#C7C7C7"/>
<path d="M183.977 302.045C183.977 302.534 183.832 303.012 183.56 303.418C183.289 303.825 182.903 304.142 182.451 304.329C181.999 304.516 181.502 304.565 181.023 304.469C180.543 304.374 180.103 304.139 179.757 303.793C179.411 303.447 179.176 303.007 179.081 302.527C178.985 302.048 179.034 301.551 179.221 301.099C179.408 300.647 179.725 300.261 180.132 299.99C180.538 299.718 181.016 299.573 181.505 299.573C182.161 299.573 182.789 299.834 183.253 300.297C183.716 300.761 183.977 301.39 183.977 302.045Z" fill="#C7C7C7"/>
<path d="M199.665 302.06C199.665 302.549 199.52 303.027 199.248 303.434C198.976 303.841 198.589 304.158 198.136 304.344C197.684 304.531 197.186 304.579 196.706 304.483C196.226 304.386 195.786 304.149 195.441 303.802C195.096 303.455 194.861 303.013 194.768 302.533C194.674 302.052 194.725 301.555 194.914 301.103C195.104 300.652 195.423 300.267 195.831 299.997C196.239 299.727 196.719 299.585 197.208 299.588C197.532 299.588 197.853 299.652 198.152 299.776C198.451 299.9 198.723 300.083 198.951 300.313C199.179 300.542 199.36 300.815 199.483 301.115C199.605 301.414 199.667 301.736 199.665 302.06Z" fill="#C7C7C7"/>
<path d="M215.369 302.059C215.369 302.548 215.224 303.026 214.952 303.433C214.68 303.839 214.294 304.156 213.843 304.343C213.391 304.53 212.894 304.579 212.415 304.484C211.935 304.388 211.495 304.153 211.149 303.807C210.803 303.462 210.568 303.021 210.473 302.542C210.377 302.062 210.426 301.565 210.613 301.114C210.8 300.662 211.117 300.276 211.524 300.004C211.93 299.733 212.408 299.588 212.897 299.588C213.552 299.588 214.181 299.848 214.645 300.312C215.108 300.775 215.369 301.404 215.369 302.059Z" fill="#C7C7C7"/>
<path d="M231.072 302.074C231.072 302.563 230.927 303.041 230.655 303.447C230.384 303.854 229.998 304.171 229.546 304.358C229.094 304.545 228.597 304.594 228.118 304.498C227.638 304.403 227.198 304.168 226.852 303.822C226.507 303.476 226.271 303.036 226.176 302.556C226.08 302.077 226.129 301.58 226.316 301.128C226.504 300.677 226.82 300.29 227.227 300.019C227.633 299.747 228.111 299.602 228.6 299.602C229.256 299.602 229.884 299.863 230.348 300.326C230.811 300.79 231.072 301.418 231.072 302.074Z" fill="#C7C7C7"/>
<path d="M227.044 335.443L167.343 335.385L164.551 313.328L229.865 313.372L227.044 335.443Z" fill="#37B44D"/>
<path opacity="0.1" d="M229.865 313.386L228.484 324.117L165.627 321.761L164.566 313.328L229.865 313.386Z" fill="black"/>
<path opacity="0.6" d="M60.9539 442.894C60.9539 444.979 60.3356 447.017 59.1773 448.751C58.019 450.484 56.3727 451.835 54.4465 452.633C52.5202 453.431 50.4007 453.64 48.3558 453.233C46.311 452.826 44.4327 451.822 42.9584 450.348C41.4842 448.874 40.4802 446.995 40.0734 444.951C39.6667 442.906 39.8754 440.786 40.6733 438.86C41.4712 436.934 42.8223 435.287 44.5558 434.129C46.2894 432.971 48.3275 432.353 50.4124 432.353C53.2082 432.353 55.8894 433.463 57.8664 435.44C59.8433 437.417 60.9539 440.098 60.9539 442.894Z" fill="#37B44D"/>
<path opacity="0.6" d="M68.631 427.874C71.4657 427.874 73.7636 425.576 73.7636 422.742C73.7636 419.907 71.4657 417.609 68.631 417.609C65.7963 417.609 63.4984 419.907 63.4984 422.742C63.4984 425.576 65.7963 427.874 68.631 427.874Z" fill="#37B44D"/>
<path opacity="0.6" d="M299.235 437.776C299.233 438.79 298.929 439.781 298.363 440.623C297.798 441.466 296.995 442.121 296.057 442.507C295.119 442.894 294.087 442.993 293.093 442.793C292.098 442.594 291.185 442.104 290.468 441.385C289.752 440.667 289.265 439.752 289.068 438.757C288.871 437.762 288.973 436.731 289.362 435.794C289.751 434.857 290.409 434.056 291.253 433.493C292.097 432.929 293.088 432.629 294.103 432.629C294.778 432.629 295.447 432.762 296.07 433.021C296.694 433.28 297.26 433.659 297.737 434.137C298.214 434.615 298.592 435.183 298.849 435.807C299.106 436.432 299.237 437.101 299.235 437.776Z" fill="#37B44D"/>
<path opacity="0.6" d="M402.091 484.653C402.091 485.668 401.79 486.66 401.226 487.504C400.662 488.348 399.861 489.006 398.923 489.395C397.985 489.783 396.953 489.885 395.957 489.687C394.962 489.489 394.047 489 393.329 488.282C392.612 487.564 392.123 486.65 391.925 485.654C391.727 484.659 391.828 483.627 392.217 482.689C392.605 481.751 393.263 480.949 394.107 480.385C394.951 479.821 395.944 479.52 396.959 479.52C398.319 479.524 399.622 480.066 400.584 481.028C401.545 481.99 402.087 483.293 402.091 484.653Z" fill="#37B44D"/>
<path opacity="0.6" d="M394.225 499.673C394.225 500.478 394.066 501.275 393.758 502.018C393.449 502.762 392.997 503.438 392.427 504.006C391.857 504.575 391.181 505.025 390.436 505.332C389.692 505.639 388.894 505.796 388.089 505.794H6.23986C4.61638 505.794 3.0594 505.149 1.91143 504.001C0.763452 502.853 0.11853 501.296 0.11853 499.673C0.11853 498.049 0.763452 496.492 1.91143 495.344C3.0594 494.196 4.61638 493.551 6.23986 493.551C6.72981 493.55 7.21807 493.609 7.69386 493.726C7.69012 491.325 8.40266 488.977 9.74032 486.983C11.078 484.99 12.98 483.44 15.203 482.533C17.4261 481.626 19.8692 481.403 22.2198 481.892C24.5705 482.381 26.7219 483.56 28.3988 485.278H28.5151C28.5151 484.536 28.3988 483.824 28.3988 483.024C28.3988 476.978 30.8008 471.179 35.0764 466.903C39.352 462.628 45.1509 460.226 51.1975 460.226C54.6765 460.216 58.1105 461.012 61.2301 462.552C61.4477 458.845 62.9263 455.325 65.4206 452.575C67.9149 449.824 71.2749 448.01 74.9426 447.433C78.6102 446.855 82.3651 447.55 85.5836 449.401C88.8022 451.252 91.2909 454.148 92.6365 457.608C95.0969 453.724 98.6735 450.674 102.898 448.857C107.122 447.041 111.796 446.544 116.308 447.43C115.99 445.674 115.835 443.893 115.842 442.109C115.832 436.203 117.516 430.419 120.695 425.442C123.874 420.465 128.415 416.505 133.778 414.033C139.141 411.56 145.101 410.679 150.95 411.493C156.8 412.307 162.292 414.783 166.776 418.627C167.292 417.629 168.072 416.793 169.031 416.208C169.99 415.624 171.091 415.313 172.214 415.311C173.022 415.314 173.821 415.472 174.569 415.777L180.342 335.298H213.987L219.716 415.733C220.451 415.434 221.235 415.276 222.028 415.268C223.151 415.27 224.252 415.58 225.211 416.165C226.17 416.749 226.95 417.586 227.466 418.583C232.287 414.431 238.274 411.87 244.607 411.253C250.94 410.635 257.309 411.991 262.841 415.133C268.374 418.276 272.799 423.052 275.511 428.808C278.224 434.564 279.09 441.018 277.992 447.285C279.429 447.003 280.89 446.862 282.354 446.863C286.213 446.857 290.009 447.832 293.387 449.696C296.764 451.561 299.612 454.253 301.664 457.521C303.009 454.061 305.498 451.165 308.716 449.314C311.935 447.463 315.69 446.768 319.358 447.345C323.025 447.923 326.385 449.737 328.879 452.487C331.374 455.238 332.852 458.758 333.07 462.465C336.19 460.925 339.624 460.128 343.103 460.138C346.106 460.129 349.082 460.713 351.86 461.857C354.637 463.001 357.161 464.683 359.286 466.805C361.412 468.928 363.096 471.45 364.244 474.226C365.392 477.002 365.98 479.977 365.974 482.981C365.974 483.737 365.974 484.435 365.858 485.234H365.974C367.659 483.525 369.816 482.357 372.169 481.88C374.522 481.403 376.963 481.638 379.182 482.556C381.4 483.474 383.294 485.033 384.622 487.033C385.949 489.033 386.651 491.383 386.635 493.784C387.111 493.667 387.599 493.608 388.089 493.609C389.704 493.609 391.254 494.246 392.403 495.381C393.551 496.516 394.206 498.058 394.225 499.673Z" fill="#37B44D"/>
<path d="M297.403 449.263L289.465 450.731L287.691 459.106L285.917 450.731L277.978 449.263L285.873 447.329L287.691 439.419L289.494 447.329L297.403 449.263Z" fill="#FDFDFD"/>
<path d="M220.167 382.131L212.228 383.6L210.454 391.975L208.666 383.6L200.727 382.131L208.637 380.197L210.454 372.288L212.257 380.197L220.167 382.131Z" fill="#FDFDFD"/>
<path d="M104.763 465.198L100.314 466.027L99.3249 470.709L98.3362 466.027L93.9015 465.198L98.3217 464.122L99.3249 459.702L100.343 464.122L104.763 465.198Z" fill="#FDFDFD"/>
<path d="M343.582 479.157L339.133 479.986L338.144 484.653L337.156 479.986L332.721 479.157L337.141 478.081L338.144 473.661L339.162 478.081L343.582 479.157Z" fill="#FDFDFD"/>
<path d="M43.6804 495.558L39.2311 496.372L38.2424 501.054L37.2537 496.372L32.819 495.558L37.2391 494.482L38.2424 490.062L39.2457 494.482L43.6804 495.558Z" fill="#FDFDFD"/>
<path d="M236.742 491.661L232.308 492.49L231.319 497.157L230.316 492.49L225.881 491.661L230.301 490.585L231.319 486.165L232.322 490.585L236.742 491.661Z" fill="#FDFDFD"/>
<path d="M204.246 369.409L199.811 370.223L198.822 374.905L197.833 370.223L193.384 369.394L197.804 368.318L198.822 363.898L199.825 368.318L204.246 369.409Z" fill="#FDFDFD"/>
<path d="M354.08 489.277C353.763 489.31 353.469 489.461 353.255 489.698C353.041 489.936 352.923 490.244 352.923 490.563C352.923 490.883 353.041 491.191 353.255 491.429C353.469 491.666 353.763 491.816 354.08 491.85C354.398 491.816 354.692 491.666 354.905 491.429C355.119 491.191 355.237 490.883 355.237 490.563C355.237 490.244 355.119 489.936 354.905 489.698C354.692 489.461 354.398 489.31 354.08 489.277Z" fill="#FDFDFD"/>
<path d="M187.132 353.167C186.814 353.201 186.52 353.351 186.307 353.589C186.093 353.827 185.975 354.135 185.975 354.454C185.975 354.774 186.093 355.082 186.307 355.32C186.52 355.557 186.814 355.707 187.132 355.741C187.45 355.707 187.744 355.557 187.957 355.32C188.171 355.082 188.289 354.774 188.289 354.454C188.289 354.135 188.171 353.827 187.957 353.589C187.744 353.351 187.45 353.201 187.132 353.167Z" fill="#FDFDFD"/>
<path d="M77.2968 495.558C76.9791 495.592 76.6852 495.742 76.4715 495.979C76.2579 496.217 76.1397 496.525 76.1397 496.845C76.1397 497.164 76.2579 497.472 76.4715 497.71C76.6852 497.947 76.9791 498.098 77.2968 498.131C77.6145 498.098 77.9085 497.947 78.1221 497.71C78.3357 497.472 78.4539 497.164 78.4539 496.845C78.4539 496.525 78.3357 496.217 78.1221 495.979C77.9085 495.742 77.6145 495.592 77.2968 495.558Z" fill="#FDFDFD"/>
<path d="M158.852 477.877C158.534 477.911 158.24 478.061 158.026 478.299C157.813 478.536 157.695 478.845 157.695 479.164C157.695 479.483 157.813 479.792 158.026 480.029C158.24 480.267 158.534 480.417 158.852 480.451C159.169 480.417 159.463 480.267 159.677 480.029C159.891 479.792 160.009 479.483 160.009 479.164C160.009 478.845 159.891 478.536 159.677 478.299C159.463 478.061 159.169 477.911 158.852 477.877Z" fill="#FDFDFD"/>
<path d="M321.845 466.158C321.624 466.186 321.42 466.294 321.273 466.461C321.126 466.628 321.044 466.844 321.044 467.067C321.044 467.29 321.126 467.505 321.273 467.672C321.42 467.84 321.624 467.947 321.845 467.975C322.066 467.947 322.27 467.84 322.417 467.672C322.565 467.505 322.646 467.29 322.646 467.067C322.646 466.844 322.565 466.628 322.417 466.461C322.27 466.294 322.066 466.186 321.845 466.158Z" fill="#FDFDFD"/>
<path d="M209.378 452.49C209.135 452.49 208.902 452.587 208.73 452.759C208.559 452.93 208.462 453.163 208.462 453.406C208.462 453.649 208.559 453.882 208.73 454.054C208.902 454.226 209.135 454.322 209.378 454.322C209.621 454.322 209.854 454.226 210.026 454.054C210.198 453.882 210.294 453.649 210.294 453.406C210.294 453.163 210.198 452.93 210.026 452.759C209.854 452.587 209.621 452.49 209.378 452.49Z" fill="#FDFDFD"/>
<path d="M127.053 434.708C126.831 434.736 126.628 434.844 126.481 435.011C126.333 435.178 126.252 435.394 126.252 435.617C126.252 435.84 126.333 436.055 126.481 436.222C126.628 436.39 126.831 436.497 127.053 436.526C127.274 436.497 127.477 436.39 127.625 436.222C127.772 436.055 127.854 435.84 127.854 435.617C127.854 435.394 127.772 435.178 127.625 435.011C127.477 434.844 127.274 434.736 127.053 434.708Z" fill="#FDFDFD"/>
<path d="M267.902 438.416C267.246 438.416 266.617 438.676 266.154 439.139C265.69 439.603 265.43 440.232 265.43 440.887C265.43 441.543 265.69 442.172 266.154 442.635C266.617 443.099 267.246 443.359 267.902 443.359C268.557 443.359 269.186 443.099 269.65 442.635C270.113 442.172 270.374 441.543 270.374 440.887C270.374 440.232 270.113 439.603 269.65 439.139C269.186 438.676 268.557 438.416 267.902 438.416Z" fill="#FDFDFD"/>
<path d="M138.699 426.333C138.044 426.333 137.415 426.593 136.951 427.057C136.488 427.52 136.227 428.149 136.227 428.805C136.227 429.46 136.488 430.089 136.951 430.552C137.415 431.016 138.044 431.276 138.699 431.276C139.355 431.276 139.984 431.016 140.447 430.552C140.911 430.089 141.171 429.46 141.171 428.805C141.171 428.149 140.911 427.52 140.447 427.057C139.984 426.593 139.355 426.333 138.699 426.333Z" fill="#FDFDFD"/>
</svg>
