<svg width="590" height="244" viewBox="0 0 590 244" fill="none" xmlns="http://www.w3.org/2000/svg">
<path d="M205.133 243.05H562.003L589.629 0.682617H232.759L205.133 243.05Z" fill="#455A64"/>
<path d="M224.573 226.794H546.27L570.189 16.9382H248.506L224.573 226.794Z" fill="white"/>
<path d="M100.401 243.05L559.502 243.05V226.794L100.401 226.794V243.05Z" fill="#455A64"/>
<path d="M0.700531 243.05L459.801 243.05V226.794L0.700531 226.794V243.05Z" fill="#37474F"/>
<path d="M274.852 38.7483L307.8 38.5592L340.733 38.5011L406.614 38.3848L472.494 38.5011L505.442 38.5592L538.375 38.7483L505.442 38.9227L472.494 38.9809L406.614 39.1118L340.733 38.9809L307.8 38.9227L274.852 38.7483Z" fill="#C7C7C7"/>
<path d="M273.544 49.4934L306.477 49.3044L339.424 49.2462L405.305 49.1299L471.186 49.2462L504.119 49.3044L537.067 49.4934L504.119 49.6678L471.186 49.726L405.305 49.8569L339.424 49.726L306.477 49.6678L273.544 49.4934Z" fill="#C7C7C7"/>
<path d="M272.22 60.2385L305.154 60.0495L338.101 59.9913L403.982 59.875L469.863 59.9913L502.796 60.0495L535.743 60.2385L502.796 60.413L469.863 60.4711L403.982 60.602L338.101 60.4711L305.154 60.413L272.22 60.2385Z" fill="#C7C7C7"/>
<path d="M270.897 70.9836L303.845 70.8091L336.778 70.7364L402.659 70.6201L468.54 70.7364L501.487 70.8091L534.42 70.9836L501.487 71.1581L468.54 71.2163L402.659 71.3471L336.778 71.2163L303.845 71.1581L270.897 70.9836Z" fill="#C7C7C7"/>
<path d="M269.574 81.7285L302.522 81.554L335.455 81.4813L401.336 81.365L467.216 81.4813L500.164 81.554L533.097 81.7285L500.164 81.903L467.216 81.9611L401.336 82.092L335.455 81.9611L302.522 81.903L269.574 81.7285Z" fill="#C7C7C7"/>
<path d="M268.266 92.4736L301.199 92.2991L334.146 92.2264L400.027 92.1101L465.908 92.2264L498.841 92.2991L531.789 92.4736L498.841 92.6481L465.908 92.7208L400.027 92.8371L334.146 92.7062L301.199 92.6481L268.266 92.4736Z" fill="#C7C7C7"/>
<path d="M266.942 103.219L299.876 103.044L332.823 102.972L398.704 102.855L464.585 102.972L497.518 103.044L530.465 103.219L497.518 103.393L464.585 103.466L398.704 103.582L332.823 103.466L299.876 103.393L266.942 103.219Z" fill="#C7C7C7"/>
<path d="M265.619 113.964L298.567 113.789L331.5 113.717L397.381 113.6L463.262 113.717L496.209 113.789L529.142 113.964L496.209 114.138L463.262 114.211L397.381 114.327L331.5 114.196L298.567 114.138L265.619 113.964Z" fill="#C7C7C7"/>
<path d="M264.311 124.709L297.244 124.534L330.191 124.462L396.072 124.345L461.938 124.462L494.886 124.534L527.819 124.709L494.886 124.883L461.938 124.956L396.072 125.072L330.191 124.956L297.244 124.883L264.311 124.709Z" fill="#C7C7C7"/>
<path d="M262.988 135.454L295.921 135.279L328.868 135.207L394.749 135.09L460.63 135.207L493.563 135.279L526.511 135.454L493.563 135.628L460.63 135.701L394.749 135.817L328.868 135.701L295.921 135.628L262.988 135.454Z" fill="#C7C7C7"/>
<path d="M261.664 146.199L294.598 146.024L327.545 145.966L393.426 145.835L459.307 145.966L492.24 146.024L525.187 146.199L492.24 146.374L459.307 146.446L393.426 146.562L327.545 146.446L294.598 146.374L261.664 146.199Z" fill="#C7C7C7"/>
<path d="M260.341 156.944L293.289 156.77L326.222 156.711L392.103 156.581L457.984 156.711L490.931 156.77L523.864 156.944L490.931 157.119L457.984 157.191L392.103 157.308L326.222 157.191L293.289 157.119L260.341 156.944Z" fill="#C7C7C7"/>
<path d="M259.018 167.689L291.966 167.515L324.913 167.457L390.794 167.326L456.675 167.457L489.608 167.515L522.556 167.689L489.608 167.878L456.675 167.936L390.794 168.053L324.913 167.936L291.966 167.864L259.018 167.689Z" fill="#C7C7C7"/>
<path d="M257.71 178.434L290.643 178.26L323.59 178.201L389.471 178.071L455.352 178.201L488.285 178.26L521.233 178.434L488.285 178.623L455.352 178.681L389.471 178.798L323.59 178.681L290.643 178.623L257.71 178.434Z" fill="#C7C7C7"/>
<path d="M256.386 189.179L289.32 189.005L322.267 188.947L388.148 188.816L454.029 188.947L486.962 189.005L519.909 189.179L486.962 189.368L454.029 189.426L388.148 189.543L322.267 189.426L289.32 189.354L256.386 189.179Z" fill="#C7C7C7"/>
<path d="M313.47 113.964H293.493L282.718 201.713H302.696L313.47 113.964Z" fill="#37B44D"/>
<path d="M353.165 92.561H333.187L319.781 201.713H339.773L353.165 92.561Z" fill="#37B44D"/>
<path d="M388.889 103.582H368.911L356.858 201.713H376.836L388.889 103.582Z" fill="#37B44D"/>
<path d="M429.965 70.9834H409.987L393.935 201.713H413.913L429.965 70.9834Z" fill="#37B44D"/>
<path d="M464.89 88.5042H444.898L430.997 201.713H450.99L464.89 88.5042Z" fill="#37B44D"/>
<path d="M506.751 49.4934H486.758L468.074 201.713H488.052L506.751 49.4934Z" fill="#37B44D"/>
<path d="M282.936 31.2021L278.284 73.9061C276.742 88.1408 275.041 102.346 273.413 116.567L268.469 159.241L263.322 201.873L261.984 200.419C283.344 200.419 304.717 200.273 326.077 200.419L390.169 200.564L454.261 201.015L486.249 201.364L518.237 201.815L486.249 202.265L454.261 202.614L390.169 203.05L326.077 203.21C304.717 203.312 283.344 203.21 261.984 203.21H260.414L260.603 201.756L265.939 159.14L271.464 116.537C273.326 102.346 275.114 88.1408 277.062 73.9643L282.936 31.2021Z" fill="#C7C7C7"/>
<path d="M301.373 212.531H281.381L281.613 210.728H301.591L301.373 212.531Z" fill="#C7C7C7"/>
<path d="M338.436 212.531H318.458L318.676 210.728H338.668L338.436 212.531Z" fill="#C7C7C7"/>
<path d="M375.513 212.531H355.535L355.753 210.728H375.731L375.513 212.531Z" fill="#C7C7C7"/>
<path d="M412.59 212.531H392.597L392.815 210.728H412.808L412.59 212.531Z" fill="#C7C7C7"/>
<path d="M449.652 212.531H429.674L429.892 210.728H449.885L449.652 212.531Z" fill="#C7C7C7"/>
<path d="M486.729 212.531H466.737L466.969 210.728H486.947L486.729 212.531Z" fill="#C7C7C7"/>
<path d="M247.343 27.1162L248.506 16.9382H570.189L569.026 27.1162H247.343Z" fill="#263238"/>
<path d="M256.997 22.0272C256.905 22.7313 256.558 23.3772 256.022 23.8432C255.487 24.3093 254.799 24.5633 254.089 24.5572C253.768 24.5653 253.449 24.5027 253.155 24.3739C252.86 24.2452 252.598 24.0534 252.386 23.8122C252.173 23.5709 252.017 23.286 251.927 22.9776C251.837 22.6692 251.815 22.3448 251.864 22.0272C251.957 21.3232 252.303 20.6773 252.839 20.2112C253.375 19.7452 254.062 19.4913 254.772 19.4973C255.094 19.4867 255.415 19.5475 255.71 19.6753C256.006 19.8032 256.27 19.995 256.482 20.2369C256.695 20.4788 256.851 20.7648 256.94 21.0743C257.029 21.3839 257.049 21.7093 256.997 22.0272Z" fill="#C7C7C7"/>
<path d="M267.321 22.0274C267.23 22.719 266.894 23.3551 266.373 23.8196C265.853 24.284 265.183 24.5459 264.485 24.5574C264.164 24.5654 263.845 24.5028 263.551 24.3741C263.256 24.2453 262.994 24.0536 262.782 23.8123C262.569 23.5711 262.413 23.2861 262.323 22.9777C262.233 22.6693 262.212 22.3449 262.261 22.0274C262.353 21.3234 262.7 20.6774 263.235 20.2114C263.771 19.7453 264.459 19.4914 265.169 19.4974C265.484 19.4976 265.796 19.5663 266.083 19.6989C266.37 19.8315 266.624 20.0247 266.829 20.2653C267.034 20.5059 267.184 20.7881 267.268 21.0924C267.353 21.3966 267.371 21.7156 267.321 22.0274Z" fill="white"/>
<path d="M277.658 22.0274C277.566 22.7314 277.219 23.3774 276.684 23.8434C276.148 24.3095 275.46 24.5634 274.75 24.5574C274.43 24.5658 274.111 24.5034 273.817 24.3746C273.523 24.2457 273.262 24.0536 273.051 23.812C272.84 23.5704 272.684 23.2852 272.596 22.9767C272.508 22.6682 272.489 22.3441 272.54 22.0274C272.633 21.3234 272.979 20.6774 273.515 20.2114C274.051 19.7454 274.738 19.4914 275.448 19.4974C275.768 19.4916 276.086 19.5557 276.378 19.6854C276.671 19.8151 276.932 20.0072 277.142 20.2482C277.353 20.4892 277.508 20.7733 277.597 21.0807C277.686 21.388 277.707 21.7111 277.658 22.0274Z" fill="#37B44D"/>
</svg>
