<svg width="167" height="469" viewBox="0 0 167 469" fill="none" xmlns="http://www.w3.org/2000/svg">
<path d="M165.258 467.294C162.35 468.239 79.0799 467.148 75.9392 465.098C74.7324 464.342 74.1799 452.201 73.9472 437.472V437.036C73.9472 434.012 73.8455 430.886 73.8455 427.73C73.8455 427.294 73.8455 426.858 73.8455 426.436L77.8585 383.238L133.561 383.791L128.065 426.582V428.283L127.731 437.138V438.039C127.731 438.039 159.413 452.71 162.627 455.342C165.84 457.974 168.181 466.363 165.258 467.294Z" fill="#DD6A57"/>
<path d="M165.258 467.294C162.35 468.239 79.0799 467.148 75.9392 465.098C74.7324 464.342 74.1799 452.201 73.9472 437.472V437.036C73.9472 434.012 73.8455 430.886 73.8455 427.73C73.8455 427.294 73.8455 426.858 73.8455 426.436L128.08 426.582V428.283L127.745 437.138V438.039C127.745 438.039 159.428 452.71 162.641 455.342C165.855 457.974 168.181 466.363 165.258 467.294Z" fill="#EBEBEB"/>
<path d="M165.273 467.294C163.819 467.773 141.151 467.715 119.036 467.294C114.587 467.206 110.166 467.105 105.95 466.988C90.1884 466.552 77.1606 465.898 75.9538 465.113C74.747 464.328 74.209 452.55 73.9618 438.141C73.9618 437.937 73.9618 437.734 73.9618 437.53C73.9618 437.327 73.9618 437.21 73.9618 437.051L127.614 437.152V438.068C127.614 438.068 159.312 452.725 162.51 455.356C165.709 457.988 168.181 466.363 165.273 467.294Z" fill="#37B44D"/>
<path d="M164.357 464.051C150.326 463.528 93.6926 462.728 79.7923 463.266C79.676 463.266 79.676 463.353 79.7923 463.353C93.6926 464.182 150.34 464.531 164.372 464.284C164.648 464.284 164.662 464.066 164.357 464.051Z" fill="#263238"/>
<path d="M133.634 437.37C128.123 436.28 121.362 437.036 117.087 440.918C116.927 441.063 117.087 441.296 117.32 441.238C122.621 439.608 128.08 438.545 133.605 438.068C133.651 438.07 133.696 438.063 133.74 438.047C133.783 438.031 133.822 438.007 133.856 437.976C133.89 437.945 133.917 437.908 133.936 437.866C133.956 437.825 133.966 437.78 133.968 437.734C133.97 437.688 133.963 437.642 133.947 437.599C133.932 437.556 133.907 437.517 133.876 437.483C133.845 437.449 133.808 437.422 133.766 437.402C133.725 437.383 133.68 437.372 133.634 437.37Z" fill="#263238"/>
<path d="M137.589 439.828C132.078 438.723 125.317 439.493 121.042 443.375C120.882 443.521 121.042 443.753 121.275 443.695C126.576 442.065 132.035 441.003 137.56 440.526C137.652 440.529 137.743 440.496 137.811 440.434C137.879 440.371 137.919 440.284 137.923 440.191C137.927 440.099 137.894 440.008 137.831 439.94C137.769 439.872 137.681 439.832 137.589 439.828Z" fill="#263238"/>
<path d="M141.544 442.285C136.033 441.18 129.272 441.951 124.997 445.818C124.837 445.978 124.997 446.211 125.23 446.153C130.529 444.516 135.988 443.453 141.515 442.983C141.607 442.987 141.697 442.954 141.766 442.891C141.834 442.828 141.874 442.741 141.878 442.649C141.882 442.556 141.849 442.466 141.786 442.398C141.723 442.329 141.636 442.289 141.544 442.285Z" fill="#263238"/>
<path d="M119.036 467.279C114.587 467.192 110.166 467.09 105.95 466.974C90.1884 466.538 77.1606 465.884 75.9538 465.098C74.747 464.313 74.209 452.536 73.9618 438.127C73.9618 437.923 73.9618 437.719 73.9618 437.516C73.9618 437.312 73.9618 437.196 73.9618 437.036C81.3481 442.198 107.302 459.442 119.036 467.279Z" fill="#263238"/>
<path d="M131.308 437.327H71.3591C71.3591 437.327 83.4273 297.292 82.9911 294.835C82.3804 291.694 78.8472 277.518 74.1363 259.008C72.6823 253.192 71.0683 246.998 69.4108 240.557C64.9324 223.109 60.0034 204.091 55.7141 187.515C49.2729 162.695 44.242 143.415 44.242 143.415H95.132C95.132 143.415 101.05 162.186 108.523 186.614C120.679 226.308 136.935 280.949 138.534 294.21C141.035 315.7 131.308 437.327 131.308 437.327Z" fill="#455A64"/>
<path d="M128.661 427.105C119.501 426.916 122.133 426.844 112.973 426.742C108.494 426.742 79.0362 426.451 74.8487 427.149C74.8256 427.149 74.8034 427.158 74.787 427.174C74.7707 427.191 74.7615 427.213 74.7615 427.236C74.7615 427.259 74.7707 427.281 74.787 427.298C74.8034 427.314 74.8256 427.323 74.8487 427.323C79.0362 428.021 108.494 427.759 112.973 427.716C122.133 427.629 119.501 427.556 128.661 427.367C128.696 427.367 128.729 427.353 128.754 427.329C128.778 427.304 128.792 427.271 128.792 427.236C128.792 427.201 128.778 427.168 128.754 427.144C128.729 427.119 128.696 427.105 128.661 427.105Z" fill="#263238"/>
<path d="M94.216 286.285C92.2385 277.561 89.3015 269.128 86.7424 260.622C81.5759 243.329 76.3609 226.041 71.0974 208.758C68.4705 200.121 65.8339 191.489 63.1876 182.862C61.8354 178.5 60.4977 174.138 59.1455 169.776C57.7933 165.414 56.2375 161.3 55.0888 156.996C54.5945 155.251 54.3182 156.211 54.958 158.45C56.223 162.913 57.4589 167.392 58.7675 171.856C61.3556 180.696 63.9534 189.527 66.5609 198.347C71.7662 215.951 77.0103 233.52 82.2932 251.055L90.232 277.431C91.5733 281.615 92.6561 285.879 93.4744 290.197C94.1791 294.712 94.3548 299.294 93.9979 303.85C93.4308 313.024 92.3694 322.185 91.5116 331.345C90.6537 340.505 89.8249 349.68 88.967 358.855C87.2804 377.097 85.6083 395.35 83.9508 413.612C83.7472 415.924 83.5436 418.236 83.3546 420.562C83.3546 421.333 84.4742 421.275 84.5469 420.562C86.5243 402.504 88.0365 384.401 89.7377 366.328L94.7976 312.37C95.2193 307.848 95.6991 303.326 95.6991 298.79C95.6743 294.579 95.1769 290.385 94.216 286.285Z" fill="#263238"/>
<path d="M89.2579 143.43C85.7392 170.722 79.0799 221.946 74.1072 259.023C62.6497 214.036 44.2129 143.43 44.2129 143.43H89.2579Z" fill="#263238"/>
<path d="M101.748 468.093C98.8397 469.053 15.5691 468.268 12.414 466.232C11.2071 465.476 10.611 453.335 10.3202 438.606C10.3202 438.446 10.3202 438.301 10.3202 438.141C10.3202 435.117 10.2039 432.005 10.1893 428.835C10.1893 428.399 10.1893 427.963 10.1893 427.541C9.98578 406.342 11.527 384.343 11.527 384.343L65.9357 384.707L64.4817 427.498V429.184L64.1763 438.039V438.955C64.1763 438.955 95.9172 453.495 99.0723 456.112C102.228 458.73 104.656 467.148 101.748 468.093Z" fill="#DD6A57"/>
<path d="M101.748 468.094C98.8397 469.053 15.5691 468.268 12.414 466.232C11.2071 465.476 10.611 453.335 10.3202 438.606C10.3202 438.446 10.3202 438.301 10.3202 438.141C10.3202 435.117 10.2039 432.005 10.1893 428.836C10.1893 428.399 10.1893 427.963 10.1893 427.542H64.4235V429.228L64.1182 438.083V438.999C64.1182 438.999 95.859 453.539 99.0142 456.156C102.169 458.773 104.656 467.148 101.748 468.094Z" fill="#EBEBEB"/>
<path d="M101.748 468.093C98.8397 469.053 15.5691 468.268 12.414 466.232C11.2071 465.476 10.611 453.335 10.3202 438.606C10.3202 438.446 10.3202 438.301 10.3202 438.141L64.0455 438.039V438.955C64.0455 438.955 95.7863 453.495 98.9415 456.113C102.097 458.73 104.656 467.148 101.748 468.093Z" fill="#37B44D"/>
<path d="M100.832 464.851C86.8006 464.386 30.1528 463.789 16.2525 464.386C16.1362 464.386 16.1362 464.473 16.2525 464.473C30.1528 465.243 86.7861 465.389 100.832 465.084C101.123 465.084 101.123 464.865 100.832 464.851Z" fill="#263238"/>
<path d="M70.0069 438.301C64.4962 437.21 57.7351 437.996 53.4749 441.892C53.315 442.038 53.4749 442.27 53.7076 442.227C58.9982 440.565 64.4536 439.483 69.9778 438.999C70.0704 439.003 70.1607 438.97 70.2288 438.907C70.297 438.844 70.3375 438.757 70.3413 438.664C70.3452 438.572 70.3121 438.482 70.2494 438.413C70.1867 438.345 70.0994 438.305 70.0069 438.301Z" fill="#263238"/>
<path d="M73.9763 440.729C68.4657 439.653 61.7046 440.438 57.4443 444.335C57.2699 444.48 57.4443 444.713 57.677 444.655C62.9697 442.996 68.4238 441.904 73.9472 441.398C74.0204 441.38 74.0857 441.338 74.1334 441.28C74.1811 441.222 74.2086 441.15 74.2119 441.074C74.2152 440.999 74.194 440.925 74.1515 440.863C74.1091 440.8 74.0476 440.754 73.9763 440.729Z" fill="#263238"/>
<path d="M77.9312 443.172C72.4206 442.096 65.6594 442.881 61.3992 446.778C61.2393 446.923 61.3992 447.156 61.6319 447.098C66.9261 445.45 72.3799 444.368 77.9021 443.87C77.9947 443.874 78.085 443.841 78.1531 443.778C78.2213 443.715 78.2618 443.628 78.2656 443.535C78.2695 443.443 78.2364 443.353 78.1737 443.284C78.111 443.216 78.0238 443.176 77.9312 443.172Z" fill="#263238"/>
<path d="M93.3872 143.43C93.3872 143.43 92.2095 167.741 86.6552 187.05C86.2045 188.649 85.7246 190.22 85.2012 191.717C80.0978 193.779 75.1922 196.3 70.5449 199.249C70.5449 199.249 69.9633 218.805 69.3817 240.63C68.7274 265.013 68.0585 292.218 68.1894 297.99C68.6983 319.567 65.4995 438.272 65.4995 438.272L5.522 438.49C5.522 438.49 16.3543 305.943 16.2816 298.034C16.1653 285.326 19.1896 229.143 21.516 188.169C22.97 162.928 24.1187 143.474 24.1187 143.474L93.3872 143.43Z" fill="#455A64"/>
<path d="M63.4348 427.541C54.2892 427.396 56.9064 427.309 47.7607 427.265C43.2678 427.265 13.8243 427.105 9.63683 427.818C9.54959 427.818 9.54959 427.992 9.63683 428.007C13.8243 428.676 43.2824 428.297 47.7607 428.239C56.9209 428.108 54.2892 428.05 63.4494 427.818C63.478 427.807 63.5025 427.787 63.5193 427.761C63.536 427.735 63.5441 427.705 63.5425 427.674C63.5409 427.644 63.5296 427.614 63.5103 427.59C63.4909 427.566 63.4645 427.549 63.4348 427.541Z" fill="#263238"/>
<path d="M29.1786 152.052C28.0735 185.494 26.9103 218.936 25.4127 252.378C23.9151 285.82 21.894 319.466 19.0878 352.922C17.5175 371.621 16.0344 397.924 14.0134 416.564C14.0134 416.591 14.0241 416.617 14.0432 416.636C14.0623 416.655 14.0882 416.666 14.1151 416.666C14.1421 416.666 14.168 416.655 14.1871 416.636C14.2062 416.617 14.2169 416.591 14.2169 416.564C18.5789 383.398 21.0071 342.41 23.159 308.968C25.3109 275.526 26.7504 242.084 27.8991 208.715C28.5388 189.813 29.0332 170.911 29.6002 152.009C29.6002 151.819 29.1931 151.849 29.1786 152.052Z" fill="#263238"/>
<path d="M87.6875 190.205C81.7258 192.702 75.9904 195.709 70.5449 199.191C70.5103 199.221 70.487 199.263 70.4789 199.308C70.4708 199.353 70.4784 199.4 70.5003 199.441C70.5223 199.481 70.5573 199.513 70.5998 199.531C70.6422 199.549 70.6895 199.552 70.7339 199.54C76.5499 196.734 82.3659 194.029 88.0365 190.903C88.1175 190.85 88.1764 190.77 88.2018 190.677C88.2272 190.584 88.2173 190.484 88.1742 190.398C88.131 190.312 88.0575 190.244 87.9677 190.209C87.8779 190.173 87.7782 190.172 87.6875 190.205Z" fill="#263238"/>
<path d="M88.022 169.587C87.6294 171.71 87.106 173.818 86.6552 175.941C86.2045 178.064 85.8991 179.954 85.3757 181.917C84.9429 183.826 83.9745 185.571 82.584 186.948C81.7988 187.675 80.941 188.315 80.1122 188.969C79.6615 189.333 79.1817 189.682 78.6582 190.045C78.6582 189.754 78.76 189.478 78.8182 189.187C78.949 188.373 79.0944 187.573 79.2253 186.759C79.5306 184.956 79.8214 183.168 80.0977 181.365C80.6356 177.832 81.13 174.255 81.8716 170.765C81.8716 170.62 81.6825 170.562 81.6534 170.765C80.7665 174.226 79.7923 177.657 79.0217 181.161C78.6437 182.877 77.306 191.339 77.2478 191.95C77.1897 192.561 77.1315 193.186 77.117 193.811C77.0298 194.438 77.0298 195.074 77.117 195.701C77.117 195.861 77.3351 195.832 77.3932 195.701C77.6513 195.111 77.8322 194.491 77.9312 193.855C78.0911 193.244 78.222 192.633 78.3383 192.023C78.3383 191.804 78.3383 191.572 78.4401 191.339C79.2689 190.845 80.0395 190.176 80.8247 189.609C81.6098 189.042 82.5258 188.402 83.311 187.733C84.7871 186.494 85.8519 184.836 86.3644 182.979C86.8762 180.982 87.2071 178.943 87.3531 176.886C87.6294 174.487 87.8184 172.074 88.1528 169.616C88.2692 169.5 88.051 169.5 88.022 169.587Z" fill="#263238"/>
<path d="M73.4383 86.2876C96.586 99.1846 130.144 103.488 139.581 97.8469C149.555 91.9 163.455 62.8055 164.459 43.2637C164.677 38.9017 132.122 40.6611 131.322 43.5981C128.981 52.3221 121.944 68.5488 120.446 68.5924C118.483 68.5924 93.6053 69.7701 76.3173 67.6618C54.8417 65.0592 60.774 79.1921 73.4383 86.2876Z" fill="#DD6A57"/>
<path d="M165.84 25.7285C167.061 32.5914 164.081 47.5385 161.972 50.9699C159.864 54.4014 134.157 50.0975 132.224 46.5207C130.29 42.9438 127.934 19.5199 131.337 13.2677C134.739 7.01552 164.561 18.6184 165.84 25.7285Z" fill="#DD6A57"/>
<path d="M128.036 23.9401C130.479 26.7027 132.398 22.2534 132.398 22.2534C132.398 22.2534 131.249 29.3199 134.87 31.2101C138.49 33.1003 140.439 27.546 140.599 27.1534C140.599 27.5315 139.653 34.0599 143.507 35.5866C147.36 37.1133 148.639 31.3118 148.712 30.9338C148.712 31.3118 149.599 36.1973 152.769 36.7498C158.236 37.6077 156.447 25.0306 159.283 21.57C159.283 21.57 165.695 25.714 165.913 25.7867C166.131 25.8594 164.459 13.7912 159.573 10.2288C158.871 9.70126 158.009 9.42948 157.131 9.45856C156.254 9.48765 155.412 9.81586 154.746 10.3888C154.746 10.3888 154.746 6.46297 151.722 5.16891C150.18 4.51461 147.767 6.37573 147.767 6.37573C147.711 5.48604 147.409 4.62928 146.896 3.90041C146.383 3.17154 145.678 2.59905 144.859 2.24638C142.692 1.46122 140.599 3.4532 140.599 3.4532C140.599 3.4532 139.057 0.545197 136.571 0.428877C131.511 0.167157 122.831 17.9932 128.036 23.9401Z" fill="#DD6A57"/>
<path d="M140.162 3.65668C140.162 3.54036 140.162 3.65668 140.162 3.65668C135.681 9.01206 132.937 15.6053 132.296 22.5587C132.296 22.7913 132.645 22.9076 132.703 22.6605C134.254 15.9974 136.767 9.59567 140.162 3.65668Z" fill="#263238"/>
<path d="M147.709 6.2158C147.703 6.20351 147.693 6.19315 147.682 6.1859C147.67 6.17864 147.657 6.1748 147.643 6.1748C147.63 6.1748 147.616 6.17864 147.605 6.1859C147.593 6.19315 147.584 6.20351 147.578 6.2158C142.704 12.1611 140.125 19.6571 140.308 27.3424C140.308 27.6187 140.599 27.8368 140.613 27.5315C140.744 22.2389 144.408 11.7119 147.709 6.2158Z" fill="#263238"/>
<path d="M148.857 31.4719C148.756 23.9547 151.082 17.1645 154.47 10.5342C154.47 10.447 154.397 10.4034 154.339 10.5342C151.825 13.7245 150.016 17.4115 149.032 21.352C147.998 24.648 147.848 28.1577 148.596 31.53C148.625 31.6173 148.857 31.6318 148.857 31.4719Z" fill="#263238"/>
<path d="M132.354 22.2534C132.26 23.6297 132.289 25.0117 132.442 26.3828C132.553 27.7149 133.003 28.9964 133.75 30.105C134.133 30.5857 134.674 30.9154 135.277 31.0355C135.891 31.1363 136.521 31.0813 137.109 30.8756C137.675 30.6224 138.18 30.2515 138.591 29.7877C139.002 29.3239 139.31 28.7777 139.494 28.1857L140.526 25.2777V28.3166C140.513 29.6604 140.725 30.997 141.151 32.2714C141.31 32.8766 141.598 33.4404 141.994 33.9246C142.391 34.4088 142.887 34.8021 143.448 35.0777C143.972 35.3302 144.566 35.3958 145.133 35.2635C145.699 35.1312 146.202 34.8091 146.56 34.3507C147.341 33.3123 147.842 32.0906 148.014 30.8029L148.61 27.2697L149.206 30.7884C149.358 31.7907 149.641 32.7686 150.05 33.6964C150.401 34.5731 151.002 35.3267 151.78 35.8628C152.139 36.0904 152.555 36.2112 152.979 36.2112C153.404 36.2112 153.82 36.0904 154.179 35.8628C154.921 35.2537 155.467 34.4395 155.749 33.5219C156.394 31.5524 156.88 29.5346 157.203 27.4878C157.421 26.4554 157.625 25.4231 157.887 24.4053C158.088 23.3592 158.509 22.3679 159.123 21.4973C158.627 22.3984 158.306 23.3851 158.177 24.4053C157.988 25.4377 157.858 26.47 157.727 27.5169C157.517 29.6346 157.108 31.7279 156.505 33.7691C156.207 34.8927 155.585 35.9039 154.717 36.6771C154.199 37.0358 153.59 37.2376 152.96 37.2582C152.331 37.2789 151.709 37.1174 151.169 36.7934C150.188 36.1547 149.418 35.2387 148.959 34.1616C148.486 33.1541 148.149 32.0882 147.956 30.9919H149.148C148.97 32.5152 148.393 33.9646 147.476 35.194C146.946 35.8639 146.201 36.3311 145.368 36.5171C144.543 36.6725 143.69 36.571 142.925 36.2263C142.215 35.877 141.588 35.3796 141.087 34.7676C140.585 34.1556 140.22 33.4433 140.017 32.6786C139.559 31.2712 139.342 29.7963 139.377 28.3166L140.439 28.5056C140.178 29.2307 139.761 29.8901 139.219 30.4376C138.676 30.9851 138.021 31.4075 137.298 31.6753C136.562 31.9 135.781 31.9301 135.03 31.7625C134.265 31.588 133.592 31.1375 133.14 30.4976C132.39 29.2612 131.993 27.8432 131.991 26.3973C131.951 25.0066 132.073 23.616 132.354 22.2534Z" fill="#263238"/>
<path d="M131.119 42.6093C131.119 42.6093 114.863 17.8913 127.643 16.2629C131.438 15.783 147.592 18.3421 147.142 21.599C146.56 25.8011 139.624 25.961 135.233 25.4231C135.233 25.4231 141.951 33.0566 138.04 39.3088C137.302 40.4432 136.265 41.3518 135.044 41.9342C133.823 42.5167 132.464 42.7503 131.119 42.6093Z" fill="#DD6A57"/>
<path d="M126.582 16.4666C128.05 16.1032 129.564 15.9562 131.075 16.0304C132.585 16.0594 134.09 16.1905 135.582 16.423C138.584 16.8483 141.543 17.5392 144.423 18.4877C145.188 18.7343 145.913 19.0919 146.575 19.5491C146.959 19.8118 147.278 20.1602 147.505 20.5669C147.631 20.7849 147.724 21.02 147.781 21.2648C147.818 21.5155 147.818 21.7702 147.781 22.0209C147.643 22.9191 147.19 23.7387 146.502 24.3328C145.861 24.8586 145.133 25.2672 144.35 25.5396C142.866 26.0438 141.307 26.2897 139.741 26.2666C138.213 26.2702 136.687 26.1633 135.175 25.9467L135.626 25.0743C136.364 25.9779 137.012 26.9519 137.56 27.9823C138.114 28.9917 138.567 30.0534 138.912 31.152C139.238 32.2565 139.4 33.4029 139.392 34.5544C139.398 35.6954 139.181 36.8267 138.752 37.884C139.031 36.8026 139.125 35.6816 139.028 34.5689C138.923 33.4684 138.669 32.3874 138.272 31.3556C137.885 30.3404 137.398 29.3662 136.818 28.4476C136.242 27.5239 135.585 26.653 134.855 25.8449L133.939 24.8562L135.306 24.9725C136.755 25.1231 138.212 25.1814 139.668 25.147C141.097 25.1398 142.516 24.9042 143.87 24.4491C145.135 23.9693 146.356 23.0823 146.502 21.9337C146.647 20.785 145.266 20.1743 143.957 19.6654C142.649 19.1565 141.166 18.7348 139.741 18.3423C138.316 17.9497 136.833 17.5717 135.379 17.2809C132.507 16.5517 129.539 16.277 126.582 16.4666Z" fill="#263238"/>
<path d="M126.015 51.0281L165.84 53.6598C165.84 53.6598 154.208 95.6513 136.76 100.275C119.312 104.899 87.0332 97.178 71.7953 86.622C56.5574 76.0659 57.1536 66.0188 74.5579 66.9494C91.9623 67.8799 118.178 68.4034 120.01 66.9494C121.842 65.4954 126.015 51.0281 126.015 51.0281Z" fill="#37B44D"/>
<path d="M165.84 53.6598C165.84 53.6598 165.651 54.3577 165.258 55.6082L165.069 56.2479C164.779 57.1639 164.415 58.3126 163.964 59.6357C163.969 59.6987 163.969 59.7618 163.964 59.8248C163.775 60.3773 163.586 60.9589 163.368 61.5696L163.194 62.0639L162.801 63.198L162.554 63.8523C162.161 64.9283 161.74 66.0624 161.289 67.2402C161.259 67.2956 161.234 67.354 161.216 67.4146C160.78 68.5051 160.329 69.6538 159.835 70.8024L159.602 71.3695C159.472 71.6894 159.341 71.9947 159.195 72.3146C158.846 73.1289 158.483 73.9431 158.119 74.7573L158.032 74.9318C157.523 76.0514 156.985 77.1855 156.418 78.3196C156.316 78.5377 156.2 78.7558 156.084 78.9739L155.807 79.5264C155.807 79.6428 155.691 79.7736 155.618 79.8899C155.197 80.7187 154.761 81.533 154.31 82.3472C154.27 82.4071 154.236 82.4703 154.208 82.5362C153.568 83.6704 152.929 84.7754 152.245 85.8659L151.838 86.5057L151.62 86.8401C150.937 87.8869 150.166 88.9193 149.512 89.8935C149.478 89.9549 149.439 90.0133 149.395 90.068C149.017 90.5769 148.639 91.0712 148.247 91.5219L148.058 91.7546C147.592 92.3362 147.113 92.8887 146.604 93.4267L146.022 94.0665C145.571 94.5317 145.121 94.9825 144.655 95.4041C144.453 95.6098 144.239 95.804 144.016 95.9857C143.419 96.5237 142.809 97.0035 142.198 97.4397L141.922 97.6288C141.506 97.9288 141.074 98.2054 140.628 98.4575L140.453 98.5593C139.391 99.1876 138.252 99.6763 137.065 100.013C136.976 100.049 136.883 100.078 136.789 100.101L136.426 100.188C135.309 100.474 134.178 100.702 133.038 100.871H132.849L132.194 100.973C131.308 101.089 130.406 101.191 129.476 101.264H128.821C127.731 101.264 126.597 101.395 125.448 101.395H125.259H121.871H121.231C120.126 101.395 118.992 101.278 117.844 101.177H117.669L115.822 101.002L114.281 100.828C114.063 100.828 113.845 100.828 113.641 100.74C112.522 100.609 111.388 100.45 110.254 100.261H110.065C108.945 100.086 107.825 99.8825 106.691 99.6644C106.471 99.6348 106.252 99.5911 106.037 99.5335C104.903 99.3154 103.769 99.0828 102.649 98.821H102.475C101.341 98.5593 100.206 98.2831 99.0869 97.9923C98.8697 97.9495 98.6559 97.8912 98.4472 97.8178L97.9964 97.7015L97.313 97.5124C96.5569 97.3234 95.859 97.1053 95.0593 96.8727H94.8848C93.7507 96.5383 92.6166 96.1748 91.497 95.8113L90.8427 95.5932C89.6941 95.2006 88.5745 94.7935 87.4694 94.3863H87.2804L86.9024 94.2409L85.2739 93.6012L83.8199 93.0341L83.1801 92.7579C82.0169 92.2635 80.8828 91.7546 79.7923 91.2312L79.6178 91.1439C78.9926 90.8386 78.3674 90.5332 77.7713 90.2134L77.4368 90.0389L76.23 89.3846L75.5903 89.0356C74.398 88.3522 73.2493 87.5816 72.2024 86.9419L72.0134 86.811L71.8244 86.6801L70.9229 86.0404C70.1232 85.4733 69.3817 84.8917 68.6838 84.3247C68.4511 84.1502 68.2476 83.9757 68.0295 83.7867C67.5787 83.4086 67.1425 83.0306 66.7354 82.6526L66.5318 82.4635C65.8339 81.8044 65.2087 81.1646 64.6562 80.5443L64.4672 80.3407C64.0891 79.919 63.7547 79.4974 63.4494 79.0903C63.144 78.6831 63.1149 78.654 62.9695 78.4359C62.2012 77.3897 61.607 76.226 61.2102 74.99C61.1971 74.9326 61.1971 74.8729 61.2102 74.8155C61.1294 74.59 61.0758 74.3557 61.0503 74.1176C60.9046 73.4616 60.9046 72.7816 61.0503 72.1256C61.0891 71.8871 61.1525 71.6532 61.2393 71.4277C61.3146 71.2028 61.4171 70.9879 61.5446 70.7879C62.2111 69.656 63.2337 68.7766 64.4526 68.287L64.6416 68.1998C65.4705 67.8476 66.3327 67.5797 67.2152 67.4001L68.0149 67.2547H68.1749H68.6692C69.7871 67.103 70.9144 67.0301 72.0425 67.0366H72.2315C72.9731 67.0366 73.7728 67.0366 74.6161 67.0366H75.6193H76.2591C77.3641 67.0366 78.4837 67.1529 79.6469 67.2111H79.8214L83.2092 67.3419H83.849L87.2223 67.4583H87.4113L90.7846 67.5746H91.4389L94.8267 67.6618H95.0012L98.389 67.7345H99.0287H102.417H106.633H110.006H110.21C111.431 67.7345 112.565 67.7345 113.598 67.6473H114.238C115.561 67.6473 116.709 67.5164 117.625 67.4146H117.8L118.6 67.3129L119.487 67.1384C119.695 67.0959 119.893 67.0118 120.068 66.8912C120.545 66.3609 120.924 65.7505 121.188 65.0882C121.377 64.6957 121.58 64.2449 121.769 63.7506C121.775 63.7071 121.775 63.6631 121.769 63.6197L121.987 63.0963C122.395 62.0639 122.816 60.9007 123.223 59.723C123.223 59.723 123.223 59.5921 123.223 59.5339C123.616 58.3853 123.994 57.2221 124.343 56.1461C124.343 55.928 124.474 55.7099 124.546 55.5064L125.084 53.7907C125.084 53.5726 125.215 53.369 125.273 53.1654C125.332 52.9619 125.506 52.4239 125.593 52.1186C125.587 52.0606 125.587 52.0021 125.593 51.9441C125.768 51.3043 125.884 50.9263 125.884 50.9263L128.589 51.1008H129.243L132.616 51.3334H132.805L136.382 51.726H137.022L140.41 51.9441H140.584H141.471L143.972 52.104H144.117H144.612L147.999 52.3367H148.188L151.562 52.5548H152.216L155.589 52.7729H155.778L159.166 52.9909H159.806L163.194 53.2236H163.368L165.84 53.6598Z" fill="#37B44D"/>
<path opacity="0.3" d="M61.0067 72.082V74.074C60.861 73.418 60.861 72.738 61.0067 72.082ZM64.3945 68.2435V80.239L64.5835 80.4425V68.1562L64.3945 68.2435ZM68.1167 67.1821H67.9568V83.714C68.1749 83.9031 68.3784 84.0775 68.6111 84.252V67.1675L68.1167 67.1821ZM71.9843 66.8912V86.7384L72.1734 86.8692V66.9349L71.9843 66.8912ZM75.5612 66.9785V88.963L76.2009 89.3119V67.0657L75.5612 66.9785ZM79.5888 67.1821V91.1294L79.7632 91.2167V67.2402L79.5888 67.1821ZM83.1511 67.3275V92.6852L83.7908 92.9615V67.4147L83.1511 67.3275ZM87.1787 67.4729V94.3137H87.3677V67.4147L87.1787 67.4729ZM90.7409 67.6037V95.5932L91.3952 95.8113V67.72L90.7409 67.6037ZM94.7831 67.7055V96.8727H94.9576V67.72L94.7831 67.7055ZM98.3454 67.7782V97.8615C98.5541 97.9349 98.768 97.9932 98.9851 98.0359V67.7927L98.3454 67.7782ZM102.373 67.7782V98.8066H102.547V67.8945L102.373 67.7782ZM105.935 67.7782V99.708C106.15 99.7656 106.369 99.8093 106.59 99.8389V67.9091L105.935 67.7782ZM109.963 67.7782V100.304H110.152V67.88L109.963 67.7782ZM113.54 67.691V100.813C113.743 100.813 113.961 100.813 114.179 100.9V67.72L113.54 67.691ZM117.567 67.4292V101.249H117.742V67.5165L117.567 67.4292ZM121.711 63.7506C121.522 64.245 121.319 64.6957 121.13 65.0883V101.438H121.769V63.7215C121.756 63.7676 121.736 63.8116 121.711 63.8524V63.7506ZM125.157 53.7907V101.555H125.346V53.2673C125.288 53.4708 125.215 53.6744 125.157 53.8925V53.7907ZM128.719 51.1008V101.409H129.374V51.2462L128.719 51.1008ZM132.747 51.3771V100.973H132.936V51.4789L132.747 51.3771ZM136.382 51.726V100.377L136.746 100.29C136.84 100.267 136.932 100.238 137.022 100.202V51.726H136.382ZM140.41 51.9877V98.7484L140.584 98.6466V51.9877H140.41ZM144.117 52.2349H143.972V96.1748C144.196 95.9931 144.409 95.7989 144.612 95.5932V52.2204L144.117 52.2349ZM147.999 52.4967V91.9291L148.188 91.6965V52.4967H147.999ZM151.562 52.7293V86.9855L151.78 86.6511L152.187 86.0114V52.7584L151.562 52.7293ZM155.589 52.991V79.9772C155.662 79.8609 155.72 79.7301 155.778 79.6137V53.0056L155.589 52.991ZM159.166 53.2237V72.4019C159.312 72.082 159.442 71.7767 159.573 71.4568L159.806 70.8897V53.2527L159.166 53.2237ZM163.194 53.4999V62.0785L163.368 61.5842V53.5145L163.194 53.4999ZM143.972 52.2204L141.471 52.0605H125.724C125.718 52.1184 125.718 52.177 125.724 52.2349H143.972V52.2204ZM124.677 55.6227C124.677 55.8263 124.546 56.0444 124.474 56.2625H165.186L165.375 55.6227H124.677ZM123.354 59.6503C123.354 59.6503 123.354 59.7812 123.354 59.8394H164.066C164.071 59.7764 164.071 59.7133 164.066 59.6503H123.354ZM122.046 63.2126L121.827 63.7361C121.833 63.7795 121.833 63.8235 121.827 63.8669H162.554L162.801 63.2126H122.046ZM83.2092 67.4002L79.8214 67.2693H67.9568L67.1571 67.4147H83.7908L83.2092 67.4002ZM119.559 67.2547L118.672 67.4292H161.1C161.118 67.3687 161.142 67.3102 161.173 67.2547H119.559ZM61.501 70.8025C61.3735 71.0025 61.271 71.2174 61.1957 71.4423H159.515L159.748 70.8752L61.501 70.8025ZM61.1666 74.8301C61.1535 74.8875 61.1535 74.9471 61.1666 75.0046H157.901L157.988 74.8301H61.1666ZM62.8968 78.3924C63.0422 78.6056 63.2022 78.8237 63.3767 79.0467H155.996C156.113 78.8286 156.229 78.6105 156.331 78.3924H62.8968ZM66.4592 82.42L66.6627 82.609H154.121C154.149 82.5431 154.183 82.4798 154.223 82.42H66.4592ZM70.8212 85.9968L71.7226 86.6366H151.693L152.1 85.9968H70.8212ZM77.3787 90.0244L77.7131 90.1989H149.25C149.294 90.1442 149.333 90.0858 149.366 90.0244H77.3787ZM85.1431 93.5867L86.7715 94.2265H145.891L146.473 93.5867H85.1431ZM97.1822 97.6143L97.8656 97.8033H141.791L142.067 97.6143H97.1822ZM115.721 101.162L117.567 101.337H117.742C118.89 101.438 120.025 101.511 121.13 101.555H121.769H125.157H125.346C126.495 101.555 127.629 101.555 128.719 101.424H129.374C130.304 101.351 131.206 101.249 132.093 101.133L115.721 101.162Z" fill="white"/>
<path d="M92.1658 96.1167C84.9738 93.9288 78.1224 90.7478 71.8099 86.6657C58.4331 77.4327 57.2699 68.5488 68.9019 67.1384L92.1658 96.1167Z" fill="#263238"/>
<path d="M125.433 58.051C126.975 58.3999 128.589 58.4581 130.159 58.6616C131.729 58.8652 133.3 58.996 134.884 59.1269C137.923 59.3741 140.977 59.5776 144.015 59.7667L153.161 60.3337C156.316 60.5227 159.515 60.8717 162.67 60.799C162.693 60.7907 162.712 60.7759 162.725 60.7564C162.739 60.7369 162.746 60.7137 162.746 60.6899C162.746 60.6662 162.739 60.643 162.725 60.6235C162.712 60.604 162.693 60.5892 162.67 60.5809C159.559 60.0575 156.345 59.9266 153.205 59.6503L143.914 58.8506C140.817 58.6035 137.705 58.3563 134.608 58.1527C133.154 58.0655 131.555 57.9782 130.028 57.9492C128.494 57.8355 126.956 57.8015 125.419 57.8474C125.303 57.8619 125.332 58.0364 125.433 58.051Z" fill="#263238"/>
<path d="M17.8955 179.547C18.1136 179.765 105.95 173.731 106.691 172.801C107.709 171.448 81.0864 77.7235 71.2283 66.6585C69.12 64.274 62.7078 64.0268 57.3571 65.0882C55.9558 65.3555 54.5794 65.7397 53.2423 66.2369H53.1114C52.0519 66.6399 51.0686 67.22 50.2034 67.9526C36.0124 81.0386 26.3578 123.917 24.3077 136.727C20.8472 157.868 17.154 178.776 17.8955 179.547Z" fill="#37B44D"/>
<path opacity="0.3" d="M19.0006 168.977V179.504H18.8261V169.5H18.9133L19.0006 168.977ZM22.621 146.759C22.621 146.978 22.621 147.196 22.5047 147.399C22.3884 147.603 22.5047 147.908 22.3884 148.155V179.315H23.0282V144.273C22.97 145.087 22.7519 145.931 22.621 146.759ZM26.416 125.778V179.067H26.605V124.949C26.5323 125.226 26.4741 125.516 26.416 125.778ZM30.5599 109.421L29.9928 111.427V178.82H30.6326V109.174C30.6017 109.254 30.5774 109.336 30.5599 109.421ZM34.0204 98.3267V178.558H34.1949V97.8178L34.0204 98.3267ZM37.5827 88.7885V178.326H38.2225V87.2618L37.5827 88.7885ZM41.6103 80.0645V178.079H41.7848V79.7155L41.6103 80.0645ZM45.1726 74.0013V177.831H45.6088H45.8269V73.1434L45.1726 74.0013ZM49.142 68.8977V177.526H49.331V68.7087C49.2717 68.7753 49.2086 68.8384 49.142 68.8977ZM53.2423 66.266H53.1114L52.777 66.4114V177.293H53.4168V66.1351L53.2423 66.266ZM56.8046 65.2337V177.061H56.9791V65.1174L56.8046 65.2337ZM60.3669 64.6666V176.77H61.0066V64.5503L60.3669 64.6666ZM64.3945 64.5503V176.508H64.5835V64.5503H64.3945ZM67.9568 65.001V176.188H68.6111V65.1174L67.9568 65.001ZM71.9843 67.6473V175.97H72.1733V67.9381L71.9843 67.6473ZM75.9392 74.99L75.852 74.8155C75.7647 74.5974 75.663 74.3793 75.5612 74.1612V175.607H76.2009V75.5716L75.9392 74.99ZM79.5888 175.316H79.7632V84.2374L79.5888 83.8012V175.316ZM83.4418 94.2264C83.4418 94.0083 83.2819 93.7902 83.2092 93.5867C83.1365 93.3831 83.2092 93.4703 83.2092 93.4122V175.04H83.849V95.2297L83.4418 94.2264ZM87.2659 105.393C87.2741 105.33 87.2741 105.267 87.2659 105.204V174.734H87.4549V105.698C87.3386 105.597 87.295 105.524 87.2659 105.393ZM91.0317 117.025C91.0317 116.807 90.9009 116.603 90.8282 116.385C90.8078 116.286 90.7786 116.189 90.7409 116.095V174.444H91.3952V118.145C91.308 117.767 91.1626 117.389 91.0317 117.011V117.025ZM94.7831 129.05V174.124H94.9575V129.617L94.7831 129.05ZM98.3454 140.958V173.862H98.8106H98.9851V143.328C98.767 142.412 98.578 141.685 98.3454 140.943V140.958ZM102.373 155.076V173.426H102.547V155.687L102.373 155.076ZM106.299 170.198C106.299 169.994 106.211 169.791 106.153 169.558C106.095 169.326 106.022 168.962 105.935 168.628V172.99C106.156 172.957 106.375 172.908 106.59 172.844V171.608C106.517 171.23 106.43 170.75 106.299 170.183V170.198ZM71.7372 67.2547H51.1194L50.8723 67.4292H71.868L71.7372 67.2547ZM74.238 71.4568H47.0046C47.1646 71.2387 47.339 71.0351 47.5135 70.817H73.86C74.0199 71.0061 74.1217 71.2241 74.238 71.4422V71.4568ZM75.9392 74.99H44.4892C44.533 74.9353 44.5719 74.877 44.6055 74.8155H75.852L75.9392 74.99ZM77.684 79.0321H42.1483L42.4972 78.3778H77.3932C77.5095 78.6105 77.5968 78.8286 77.684 79.0467V79.0321ZM79.138 82.5944H40.3308L40.418 82.4054H79.0508C79.0508 82.4054 79.0944 82.5508 79.1235 82.609L79.138 82.5944ZM80.6647 86.622H38.4987C38.586 86.4039 38.6732 86.2003 38.775 85.9822H80.4321C80.5048 86.2149 80.592 86.4184 80.6647 86.622ZM81.9878 90.1843H37.0156C37.0099 90.1263 37.0099 90.0678 37.0156 90.0098H81.9297C81.9297 90.0098 81.9733 90.1407 81.9878 90.1989V90.1843ZM83.4418 94.2119H35.4599C35.4599 93.9938 35.6053 93.7902 35.6925 93.5721H83.2092C83.2819 93.7902 83.3691 94.0083 83.4418 94.2264V94.2119ZM84.6923 97.7887H34.1949C34.1949 97.7887 34.1949 97.6579 34.2676 97.5997H84.6341C84.6458 97.6695 84.6653 97.7378 84.6923 97.8033V97.7887ZM86.1463 101.816H32.8572C32.9299 101.598 32.9881 101.38 33.0608 101.162H85.8555L86.1463 101.816ZM87.3386 105.379H31.694C31.7003 105.316 31.7003 105.252 31.694 105.19H87.0914C87.1617 105.246 87.2208 105.315 87.2659 105.393L87.3386 105.379ZM88.6763 109.406H30.5599C30.5774 109.322 30.6017 109.239 30.6326 109.159C30.6646 109.026 30.7035 108.895 30.7489 108.766H88.4L88.6763 109.406ZM89.8249 112.968H29.5712V112.794H89.6504C89.6504 112.794 89.7377 112.925 89.7522 112.983L89.8249 112.968ZM91.1044 116.996H28.5824L28.7424 116.356H90.9009C90.9009 116.589 90.9736 116.792 91.0317 117.011L91.1044 116.996ZM92.2386 120.573H27.6228V120.384H92.0641C92.0641 120.384 92.1513 120.515 92.1658 120.587L92.2386 120.573ZM93.5035 124.6H26.6777C26.6777 124.382 26.7795 124.164 26.8376 123.946H93.2273C93.2854 124.179 93.3581 124.426 93.4308 124.615L93.5035 124.6ZM94.594 128.163H25.878V127.988H94.405C94.4522 128.046 94.4914 128.109 94.5213 128.177L94.594 128.163ZM95.8154 132.19H25.0783L25.2092 131.551H95.5537C95.67 131.783 95.67 132.001 95.7427 132.205L95.8154 132.19ZM96.8768 135.753H24.424C24.424 135.753 24.424 135.636 24.424 135.578H96.7314L96.8768 135.753ZM98.0836 139.78H23.7697C23.7697 139.562 23.8424 139.359 23.8715 139.14H97.8219C97.8801 139.373 97.9382 139.591 98.0109 139.795L98.0836 139.78ZM99.1305 143.357H23.1736C23.1816 143.294 23.1816 143.231 23.1736 143.168H98.9706C98.9944 143.224 99.0237 143.278 99.0578 143.328L99.1305 143.357ZM100.279 147.385H22.5047C22.5047 147.181 22.5047 146.963 22.621 146.745H100.032L100.279 147.385ZM101.312 150.947H21.9231C21.9301 150.889 21.9301 150.83 21.9231 150.772H101.152C101.172 150.839 101.202 150.902 101.239 150.962L101.312 150.947ZM102.431 154.975H21.2543C21.2543 154.756 21.2543 154.553 21.3706 154.335H102.169C102.242 154.567 102.3 154.786 102.358 154.96L102.431 154.975ZM103.405 158.537H20.6727C20.6727 158.537 20.6727 158.421 20.6727 158.362H103.26L103.405 158.537ZM104.496 162.579H20.062C20.062 162.375 20.062 162.157 20.1783 161.925H104.249L104.496 162.579ZM105.412 166.141H19.4513C19.4444 166.078 19.4444 166.015 19.4513 165.952H105.237L105.412 166.141ZM106.371 170.169H18.8261V169.5H106.153C106.211 169.776 106.255 169.98 106.299 170.183L106.371 170.169ZM100.774 173.557L99.0578 173.717H18.3027C18.3097 173.659 18.3097 173.6 18.3027 173.542L100.774 173.557ZM54.8417 177.119L53.4895 177.221H52.8497L49.4619 177.453H49.142L45.7687 177.686H17.8519C17.8519 177.497 17.8519 177.279 17.8519 177.046L54.8417 177.119Z" fill="white"/>
<path d="M49.4037 177.511C32.2901 178.718 17.9828 179.634 17.8955 179.547C17.1104 178.776 20.8035 157.868 24.2641 136.741C26.256 124.28 35.4599 83.3213 48.9821 69.0867L49.4037 177.511Z" fill="#263238"/>
<path d="M73.482 70.4973C73.9909 74.4667 74.936 83.6851 68.6547 83.5833C66.1021 83.3025 63.6843 82.293 61.69 80.6753C59.6241 79.213 57.7228 77.531 56.0194 75.659C54.0381 73.6486 52.2242 71.4798 50.596 69.1741C50.596 69.0723 50.3779 69.1741 50.4506 69.2904C52.0936 71.6168 53.504 74.0741 55.3797 76.2406C57.1631 78.3664 59.2273 80.2398 61.5155 81.8094C63.6405 83.458 66.2166 84.4215 68.9019 84.572C70.0667 84.5477 71.1875 84.1221 72.075 83.3671C72.9624 82.6121 73.5621 81.574 73.7728 80.4281C74.4197 77.1377 74.3203 73.7441 73.482 70.4973Z" fill="#263238"/>
<path d="M88.9089 188.009L138.432 196.472L159.748 128.003L110.239 119.541L88.9089 188.009Z" fill="#A6A6A6"/>
<path d="M91.3516 188.431L140.86 196.879L162.176 128.41L112.667 119.962L91.3516 188.431Z" fill="#DBDBDB"/>
<path d="M133.794 156.414C133.439 157.697 132.626 158.805 131.508 159.529C130.391 160.253 129.047 160.541 127.731 160.34C127.108 160.253 126.512 160.033 125.982 159.694C125.453 159.355 125.003 158.906 124.663 158.377C124.323 157.848 124.102 157.252 124.014 156.63C123.926 156.007 123.974 155.373 124.154 154.771C124.512 153.491 125.326 152.386 126.443 151.665C127.561 150.944 128.903 150.658 130.217 150.86C130.838 150.947 131.433 151.167 131.961 151.505C132.489 151.843 132.938 152.291 133.278 152.818C133.617 153.345 133.839 153.939 133.928 154.56C134.017 155.18 133.971 155.813 133.794 156.414Z" fill="white"/>
<path d="M43.6313 73.9869C28.6261 93.4559 -5.5284 144.913 3.57364 155.411C18.608 172.772 55.1906 188.01 66.59 191.441C71.5336 192.895 89.0979 156.952 84.4306 154C78.8472 150.453 41.9738 138.472 42.1628 135.098C42.2791 133.179 47.1209 112.605 51.0322 92.1037C55.6123 68.3308 48.764 67.313 43.6313 73.9869Z" fill="#DD6A57"/>
<path d="M66.4882 151.485C66.4882 151.485 81.5371 147.123 91.5116 144.651C97.0804 143.299 106.837 141.83 111.373 142.703C118.178 144.011 145.76 153.84 143.521 160.587C141.5 166.694 118.803 155.236 118.803 155.236C118.803 155.236 142.649 164.775 138.868 171.667C135.088 178.558 111.242 162.23 111.242 162.23C111.242 162.23 135.524 172.583 130.493 179.082C126.684 183.982 104.321 170.358 104.321 170.358C104.321 170.358 125.128 179.402 121.435 184.607C117.349 190.423 95.859 179.14 95.859 179.14C84.227 190.772 73.9182 191.615 66.5173 191.325C64.7289 191.31 66.4882 151.485 66.4882 151.485Z" fill="#DD6A57"/>
<path d="M111.94 151.892C130.057 157.577 137.196 165.909 136.964 165.734C131.424 161.372 121.668 156.719 118.919 155.44C116.171 154.16 114.63 153.259 111.897 151.994C111.824 151.965 111.882 151.877 111.94 151.892Z" fill="#263238"/>
<path d="M106.066 161.227C113.503 163.205 120.525 166.5 126.8 170.954C127.033 171.129 126.887 171.187 126.626 171.056C123.18 169.34 109.541 162.884 106.022 161.358L106.066 161.227Z" fill="#263238"/>
<path d="M100.468 168.918C106.19 170.57 111.555 173.272 116.288 176.886C116.535 177.061 116.288 177.133 116.055 176.988C110.85 174.24 106.779 172.059 100.396 169.107C100.294 169.064 100.352 168.875 100.468 168.918Z" fill="#263238"/>
<path d="M62.5333 143.968L43.6313 185.145C43.6313 185.145 3.53002 165.952 0.738335 151.209C-2.05334 136.465 34.1803 84.4266 41.0868 75.9352C43.0352 73.5361 48.3568 68.0836 50.9595 68.6652C53.8675 69.3777 53.6058 73.667 53.4604 83.6269C53.2568 96.8873 42.9189 133.368 43.7186 134.851C44.5183 136.334 62.5333 143.968 62.5333 143.968Z" fill="#37B44D"/>
<path opacity="0.3" d="M3.82082 136.8V157.577L3.6318 157.315V137.265C3.68996 137.105 3.74812 136.959 3.82082 136.8ZM7.7757 128.177C7.57214 128.57 7.38312 128.962 7.1941 129.341V161.416L7.73208 161.939L7.8484 162.056V128.032L7.7757 128.177ZM11.2362 121.605V165.138L11.4107 165.283V121.285L11.2362 121.605ZM14.7985 115.28V167.915L15.4383 168.395V114.248C15.2347 114.553 15.0166 114.917 14.7985 115.28ZM18.8261 108.563V170.809L19.0006 170.939V108.272L18.8261 108.563ZM22.3884 102.863V173.193L22.97 173.571V101.845L22.3884 102.863ZM26.416 96.6401V175.723L26.605 175.839V96.3493L26.416 96.6401ZM29.9928 91.2748V177.86L30.6326 178.239V90.3442L29.9928 91.2748ZM34.0204 180.143L34.1949 180.245V85.168L34.0204 85.4152V180.143ZM37.5827 80.4716V182.077L38.2225 182.426V79.5992L37.5827 80.4716ZM41.6103 75.2517V184.171L41.7848 184.258V75.0627C41.7193 75.1185 41.6607 75.182 41.6103 75.2517ZM45.4198 71.4422L45.1726 71.6604V126.549C45.318 125.938 45.4634 125.284 45.6233 124.615C45.6233 124.397 45.7251 124.179 45.7687 123.961C45.7755 123.874 45.7755 123.786 45.7687 123.699V71.1078L45.4198 71.4422ZM45.1726 181.67L45.318 181.35L45.4052 181.161L45.8269 180.245V136.363L45.1726 136.014V181.67ZM49.142 68.9414V109.072C49.142 108.97 49.142 108.883 49.142 108.781C49.142 108.679 49.142 108.417 49.2583 108.228V68.8687L49.142 68.9414ZM49.142 172.931L49.331 172.51V138.152L49.142 138.065V172.931ZM52.8933 139.795H52.7188V165.138L53.3586 163.757V139.998L52.8933 139.795ZM53.0387 71.4568C52.9998 71.2388 52.9414 71.0246 52.8642 70.817C52.827 70.6823 52.7784 70.5509 52.7188 70.4244V90.5187V90.2134C52.7188 90.2134 52.7188 90.0971 52.7188 90.0389C52.8933 88.8321 53.0242 87.698 53.1114 86.6511C53.1114 86.433 53.1114 86.2149 53.1114 86.0113C53.1841 85.168 53.2132 84.3974 53.2277 83.6849C53.2277 83.365 53.2277 83.0597 53.2277 82.7544V74.1467C53.2694 73.2431 53.2256 72.3376 53.0969 71.4422L53.0387 71.4568ZM56.7464 141.525V156.414L56.9209 156.036V141.583L56.7464 141.525ZM60.3087 143.066V148.693L60.8903 147.414V147.297V143.328L60.5704 143.197L60.3087 143.066ZM52.9224 70.8025H46.234L45.856 71.1078L45.4488 71.4422H53.126C53.0776 71.2233 53.0095 71.0091 52.9224 70.8025ZM41.9738 74.8301L41.872 74.99H53.504V74.8155L41.9738 74.8301ZM39.0658 78.3924L38.586 79.0467H53.504V78.3924H39.0658ZM36.1578 82.4199C36.1208 82.4873 36.0769 82.5506 36.0269 82.609H53.4749V82.4199H36.1578ZM33.6424 85.9968L33.148 86.622H53.2277C53.2277 86.4039 53.2277 86.1858 53.2277 85.9822L33.6424 85.9968ZM30.8507 90.0244L30.7344 90.1989H52.8206C52.8206 90.1989 52.8206 90.0825 52.8206 90.0244H30.8507ZM28.437 93.5867C28.3062 93.8048 28.1608 94.0083 28.0008 94.2264H52.1809C52.1809 94.0083 52.2681 93.8048 52.2972 93.5867H28.437ZM25.7762 97.6142L25.6454 97.8033H51.5411V97.6142H25.7762ZM23.4498 101.162C23.319 101.38 23.1881 101.598 23.0427 101.816H50.6687C50.7263 101.601 50.77 101.383 50.7996 101.162H23.4498ZM20.9053 105.19L20.789 105.379H49.9999V105.19H20.9053ZM18.6952 108.766L18.3027 109.406H49.142C49.1779 109.292 49.207 109.175 49.2292 109.057C49.2292 108.955 49.2292 108.868 49.2292 108.766H18.6952ZM16.2525 112.794C16.2241 112.855 16.19 112.914 16.1507 112.968H48.3278C48.3212 112.91 48.3212 112.852 48.3278 112.794H16.2525ZM14.246 116.371L13.8825 117.011H47.3972C47.3972 116.792 47.499 116.574 47.5426 116.371H14.246ZM11.9632 120.398L11.8614 120.587H46.5684C46.5551 120.525 46.5551 120.461 46.5684 120.398H11.9632ZM10.0294 123.961C9.91308 124.179 9.79676 124.397 9.69498 124.615H45.6233C45.6233 124.397 45.7251 124.179 45.7687 123.961H10.0294ZM7.9211 128.003L7.8484 128.148H44.78V127.974L7.9211 128.003ZM6.20538 131.565C6.08906 131.783 6.00182 132.001 5.90004 132.205H43.9512C43.9512 132.001 44.0385 131.798 44.0821 131.565H6.20538ZM44.5764 135.593H4.32972L4.24248 135.767H44.78L44.5764 135.593ZM52.8497 139.722L51.6138 139.155H2.89026C2.89026 139.373 2.74486 139.577 2.65762 139.795H52.9515L52.8497 139.722ZM61.0066 143.328L60.6868 143.197H1.56712C1.56192 143.26 1.56192 143.323 1.56712 143.386H61.1811L61.0066 143.328ZM0.752881 146.774C0.752881 146.992 0.752879 147.21 0.665639 147.414H60.9485V147.297L61.1957 146.774H0.752881ZM0.622021 150.802C0.607855 150.859 0.607855 150.919 0.622021 150.976H59.32V150.802H0.622021ZM1.78522 154.364C1.887 154.582 2.00332 154.8 2.11964 155.004H57.4589L57.7497 154.364H1.78522ZM4.46058 158.391C4.49948 158.453 4.54324 158.511 4.59144 158.566H55.8159L55.9031 158.391H4.46058ZM7.73208 161.954L7.8484 162.07L8.41546 162.608H53.9547L54.2601 161.954H7.73208ZM12.3122 165.981L12.5448 166.17H52.3117L52.399 165.981H12.3122ZM17.0086 169.5L17.9246 170.14H50.4651L50.7559 169.5H17.0086ZM22.97 173.571L23.1881 173.702H48.8221L48.9094 173.528L22.97 173.571ZM28.786 177.133L29.8474 177.773H46.961L47.2663 177.133H28.786ZM35.867 181.132L36.2159 181.321H45.318L45.4052 181.132H35.867ZM42.7008 184.694L43.5732 185.116L43.7622 184.694H42.7008Z" fill="white"/>
<path d="M39.2839 176.988C40.1708 175.665 40.7379 174.182 41.5376 172.786C42.3373 171.39 42.9916 169.965 43.675 168.54C45.0029 165.787 46.297 163.025 47.5571 160.252C48.8221 157.475 50.1016 154.698 51.3521 151.921C52.6025 149.144 54.1292 146.178 55.2052 143.197C55.2187 143.172 55.2217 143.143 55.2135 143.115C55.2053 143.088 55.1866 143.065 55.1616 143.052C55.1365 143.038 55.1071 143.035 55.0798 143.043C55.0526 143.052 55.0297 143.07 55.0162 143.095C53.4022 145.814 52.1082 148.766 50.7559 151.601C49.4037 154.436 48.0224 157.199 46.6702 159.991C45.318 162.782 43.9803 165.603 42.6717 168.424C42.0319 169.878 41.4213 171.216 40.8397 172.626C40.2581 174.036 39.5311 175.432 39.0949 176.901C39.0512 177.032 39.2257 177.075 39.2839 176.988Z" fill="#263238"/>
<path d="M62.3588 143.953C61.0212 143.11 48.7058 136.305 43.9367 135.026C43.9109 135.019 43.8835 135.021 43.8593 135.032C43.835 135.043 43.8152 135.062 43.8033 135.086C43.7914 135.11 43.788 135.137 43.7938 135.163C43.7995 135.189 43.814 135.213 43.8349 135.229C48.2987 138.53 60.8176 143.735 62.3007 144.157C62.4316 144.186 62.4606 144.011 62.3588 143.953Z" fill="#263238"/>
<path d="M68.6402 79.3519C64.1764 80.0935 56.1357 72.2564 53.504 66.6149C53.3295 66.2223 54.1583 62.2529 54.958 57.542C55.4233 54.634 55.874 51.3915 56.0776 48.3963C56.0776 47.7856 58.1277 49.0506 58.1277 49.0506L61.9372 50.2429L74.5434 54.1832C73.2282 57.8551 72.3641 61.6732 71.9698 65.5535C71.9326 65.9646 71.9326 66.3783 71.9698 66.7894C71.9698 66.7894 71.9698 66.9202 71.9698 67.0075C72.2461 69.3193 72.9585 78.5668 68.6402 79.3519Z" fill="#DD6A57"/>
<path d="M72.0134 66.7458C72.0134 66.7458 72.0134 66.8766 72.0134 66.9639C71.3698 67.0141 70.7232 67.0141 70.0796 66.9639C57.4589 65.8443 56.9936 49.6758 56.9936 49.6758L61.9663 50.2283L74.5724 54.1686C73.2573 57.8405 72.3931 61.6586 71.9989 65.539C71.9682 65.9409 71.9731 66.3447 72.0134 66.7458Z" fill="#263238"/>
<path d="M75.9101 20.2324C75.9101 20.2324 81.8279 21.9918 83.4564 27.6478C85.0849 33.3039 84.416 39.4834 83.9362 39.8178C83.4564 40.1522 75.9101 20.2324 75.9101 20.2324Z" fill="#263238"/>
<path d="M51.5847 30.1341C50.3488 36.9969 56.1212 55.7099 61.3411 59.4176C68.9019 64.7829 80.1558 64.0413 84.4306 55.2156C88.5745 46.6515 80.6211 22.3988 74.9069 19.1418C66.4737 14.3582 53.4022 19.9851 51.5847 30.1341Z" fill="#DD6A57"/>
<path d="M71.301 40.3994C71.301 40.3994 71.2137 40.4866 71.301 40.5303C71.7226 41.7807 71.9989 43.2929 70.9811 44.049C70.9811 44.049 70.9811 44.1362 70.9811 44.1217C72.2751 43.4964 71.8971 41.5481 71.301 40.3994Z" fill="#263238"/>
<path d="M69.7743 39.4106C67.695 39.8759 68.771 44.0052 70.6903 43.569C72.6096 43.1328 71.5045 39.0325 69.7743 39.4106Z" fill="#263238"/>
<path d="M79.0799 38.1748C79.0799 38.1748 79.1962 38.1748 79.2107 38.2621C79.5015 39.5561 80.054 40.981 81.319 41.0973V41.1701C79.865 41.3445 79.1526 39.4398 79.0799 38.1748Z" fill="#263238"/>
<path d="M79.865 36.5463C81.8861 35.8629 83.122 39.9341 81.319 40.5738C79.5161 41.2136 78.222 37.186 79.865 36.5463Z" fill="#263238"/>
<path d="M67.6514 37.9566C68.1749 37.6658 68.6111 37.3168 69.1054 36.9824C69.5998 36.648 70.1378 36.3572 70.3849 35.7029C70.441 35.5122 70.4313 35.3081 70.3574 35.1236C70.2836 34.939 70.1499 34.7846 69.9778 34.6851C69.6085 34.5369 69.2064 34.4897 68.8129 34.5485C68.4193 34.6073 68.0485 34.7698 67.7387 35.0195C67.0429 35.4414 66.5256 36.1034 66.2847 36.8806C66.2429 37.0585 66.2528 37.2445 66.3131 37.417C66.3735 37.5894 66.4818 37.741 66.6253 37.854C66.7688 37.967 66.9416 38.0367 67.1234 38.0548C67.3052 38.073 67.4884 38.0389 67.6514 37.9566Z" fill="#263238"/>
<path d="M80.9264 34.0599C80.3454 34.0962 79.7627 34.0962 79.1817 34.0599C78.5649 34.1501 77.9357 34.0324 77.3932 33.7254C77.2431 33.5955 77.1392 33.4204 77.0973 33.2263C77.0553 33.0323 77.0775 32.8298 77.1606 32.6495C77.3866 32.3213 77.6951 32.0585 78.055 31.8875C78.4149 31.7165 78.8135 31.6433 79.2107 31.6753C80.0247 31.6222 80.8289 31.8764 81.4644 32.3878C81.6037 32.5114 81.7039 32.6728 81.753 32.8524C81.8021 33.032 81.7978 33.222 81.7408 33.3993C81.6838 33.5765 81.5764 33.7333 81.4318 33.8506C81.2872 33.9679 81.1116 34.0406 80.9264 34.0599Z" fill="#263238"/>
<path d="M73.5401 47.931C73.9944 48.3528 74.5315 48.6754 75.1173 48.8781C75.7031 49.0809 76.3247 49.1594 76.9425 49.1087C77.4846 49.0775 78.0188 48.9647 78.5273 48.7743L78.8182 48.658C78.9104 48.6316 78.9984 48.5924 79.0799 48.5417C79.1445 48.5113 79.1977 48.4611 79.2317 48.3983C79.2657 48.3355 79.2788 48.2635 79.2689 48.1927C79.2811 48.1549 79.2811 48.1142 79.2689 48.0764V47.9601C79.0362 46.9714 78.5564 45.5028 78.5564 45.5028C78.9636 45.5901 80.9992 45.939 80.8392 45.5028C79.5747 41.1021 77.8596 36.8436 75.7211 32.7949C75.7211 32.664 75.4449 32.7949 75.503 32.8821C76.6517 36.9533 78.5128 40.8064 79.7342 44.8776C79.0007 44.7418 78.2514 44.7124 77.5095 44.7904C77.3932 44.8631 78.4983 47.6111 78.571 48.0619C77.7876 48.3526 76.9536 48.4819 76.119 48.442C75.2844 48.402 74.4665 48.1936 73.7146 47.8292C73.511 47.742 73.4383 47.8583 73.5401 47.931Z" fill="#263238"/>
<path d="M77.8149 48.4253C77.4603 49.2673 76.8944 50.0035 76.1719 50.5627C75.7498 50.8701 75.2399 51.0332 74.7179 51.028C73.6274 51.028 73.3656 50.0974 73.3366 49.2395C73.3331 48.7895 73.3819 48.3406 73.482 47.9019C74.8311 48.5421 76.3521 48.7259 77.8149 48.4253Z" fill="#263238"/>
<path d="M76.1719 50.5627C75.7498 50.8701 75.2399 51.0333 74.7179 51.028C73.6274 51.028 73.3656 50.0975 73.3366 49.2396C73.8892 49.1021 74.4723 49.1584 74.9884 49.3993C75.5045 49.6401 75.9223 50.0508 76.1719 50.5627Z" fill="#FF99BA"/>
<path d="M56.412 46.3462C58.6657 46.2735 58.8983 39.3525 58.7529 36.7644C58.6221 34.4961 57.0227 27.6769 56.9645 27.197C56.9063 26.7172 67.855 29.9596 72.4641 26.7027C77.0733 23.4457 78.9199 17.6443 78.2801 15.4778C77.6404 13.3113 69.3526 10.0398 63.7402 11.6683C58.1277 13.2968 53.0823 22.8496 53.0823 22.8496C53.6336 21.5159 54.0761 20.1398 54.4055 18.7347C53.5132 19.2843 52.7704 20.0457 52.2428 20.9511C51.7152 21.8566 51.4193 22.8783 51.3812 23.9255C51.3812 23.9255 50.9886 20.5086 50.6978 20.5377C50.407 20.5668 48.5749 24.2454 49.9126 26.1065C49.9126 26.1065 47.6735 29.9742 48.4586 33.1148C49.2438 36.2554 53.7076 46.4335 56.412 46.3462Z" fill="#263238"/>
<path d="M75.663 24.3763C74.4238 25.7142 72.993 26.8607 71.4173 27.7787C69.59 28.5851 67.5938 28.9344 65.6013 28.7964C63.6105 28.7079 61.6469 28.3004 59.7853 27.5896C58.1423 26.9789 56.5574 26.1356 54.8708 25.6267C54.4491 25.5104 54.2165 26.1356 54.5363 26.3828C57.9271 28.8049 62.0016 30.0833 66.1683 30.0323C68.1099 30.0034 70.0105 29.4693 71.683 28.4827C73.3555 27.496 74.7422 26.0908 75.7066 24.4054C75.7066 24.4054 75.692 24.3472 75.663 24.3763Z" fill="#263238"/>
<path d="M57.5316 45.2266C57.5316 45.2266 52.3553 39.6578 49.7672 41.5916C47.1791 43.5254 51.672 52.0167 55.1325 52.7728C55.566 52.8955 56.0196 52.9301 56.4667 52.8746C56.9138 52.819 57.3452 52.6745 57.7355 52.4496C58.1258 52.2246 58.4671 51.9237 58.7393 51.5647C59.0114 51.2057 59.2089 50.7958 59.32 50.3592L57.5316 45.2266Z" fill="#DD6A57"/>
<path d="M51.1194 43.9906V44.0779C52.2529 44.4665 53.2918 45.0894 54.1686 45.9061C55.0454 46.7227 55.7404 47.7149 56.2084 48.8179C56.0437 48.6054 55.8346 48.4315 55.5956 48.3082C55.3567 48.1849 55.0937 48.1153 54.8251 48.1042C54.5565 48.0931 54.2886 48.1409 54.0404 48.2441C53.7921 48.3472 53.5693 48.5034 53.3877 48.7016C53.3877 48.7016 53.3877 48.8325 53.3877 48.8179C53.7762 48.6319 54.213 48.5712 54.6375 48.6441C55.0621 48.717 55.4535 48.92 55.7577 49.225C56.2626 49.7326 56.7111 50.2932 57.0954 50.8971C57.2262 51.0861 57.5897 50.8971 57.4734 50.7081C57.1681 47.6402 54.3182 43.8452 51.1194 43.9906Z" fill="#263238"/>
<path d="M72.1007 66.6294L67.5206 77.6653L53.8966 63.4888L49.9417 67.938C49.9417 67.938 63.1586 90.3878 63.2603 89.3845L67.9422 79.8754L74.4561 86.6219L74.1217 69.93L72.1007 66.6294Z" fill="#EBEBEB"/>
<path d="M74.7615 78.3341C74.6015 75.5715 74.5288 72.7944 74.2526 70.0609C74.2526 69.9591 74.0926 69.9155 74.0781 70.0609C73.482 72.7072 74.0781 83.2341 74.0781 85.7641C73.8018 85.4733 68.0295 79.8463 67.9713 79.9481C66.968 81.4021 63.5221 88.3667 63.2894 89.0065C61.1957 85.4442 53.1841 72.4745 50.6978 69.1012C50.6828 69.0852 50.663 69.0745 50.6414 69.0707C50.6199 69.0668 50.5976 69.07 50.578 69.0798C50.5584 69.0896 50.5425 69.1055 50.5326 69.1251C50.5228 69.1447 50.5195 69.1669 50.5233 69.1885C52.3699 72.9543 62.9841 90.4023 63.144 90.3587C64.9514 87.0725 66.587 83.6947 68.044 80.2389C69.0182 81.4602 74.8342 87.8142 74.8633 87.3925C74.982 84.3733 74.948 81.35 74.7615 78.3341Z" fill="#263238"/>
</svg>
