<svg width="118" height="119" viewBox="0 0 118 119" fill="none" xmlns="http://www.w3.org/2000/svg">
<path d="M58.9029 96.1246V110.762C58.9029 112.217 58.3246 113.614 57.2952 114.643C56.2658 115.672 54.8697 116.251 53.4139 116.251H40.6064C39.1507 116.251 37.7545 115.672 36.7252 114.643C35.6958 113.614 35.1175 112.217 35.1175 110.762V96.1246C35.1175 94.6688 35.6958 93.2727 36.7252 92.2433C37.7545 91.2139 39.1507 90.6356 40.6064 90.6356H53.4139C54.8697 90.6356 56.2658 91.2139 57.2952 92.2433C58.3246 93.2727 58.9029 94.6688 58.9029 96.1246ZM81.7734 90.6356H68.9659C67.5101 90.6356 66.114 91.2139 65.0846 92.2433C64.0553 93.2727 63.477 94.6688 63.477 96.1246V110.762C63.477 112.217 64.0553 113.614 65.0846 114.643C66.114 115.672 67.5101 116.251 68.9659 116.251H81.7734C83.2291 116.251 84.6253 115.672 85.6546 114.643C86.684 113.614 87.2623 112.217 87.2623 110.762V96.1246C87.2623 94.6688 86.684 93.2727 85.6546 92.2433C84.6253 91.2139 83.2291 90.6356 81.7734 90.6356ZM110.133 90.6356H97.3254C95.8696 90.6356 94.4735 91.2139 93.4441 92.2433C92.4147 93.2727 91.8364 94.6688 91.8364 96.1246V110.762C91.8364 112.217 92.4147 113.614 93.4441 114.643C94.4735 115.672 95.8696 116.251 97.3254 116.251H110.133C111.589 116.251 112.985 115.672 114.014 114.643C115.043 113.614 115.622 112.217 115.622 110.762V96.1246C115.622 94.6688 115.043 93.2727 114.014 92.2433C112.985 91.2139 111.589 90.6356 110.133 90.6356ZM115.622 41.2353V77.8281C115.622 79.2839 115.043 80.68 114.014 81.7094C112.985 82.7388 111.589 83.3171 110.133 83.3171H101.735L73.7595 55.3418C72.7304 54.3139 71.3353 53.7366 69.8807 53.7366C68.4261 53.7366 67.031 54.3139 66.0019 55.3418L38.4657 82.7865C37.4878 82.3725 36.651 81.6837 36.0567 80.8036C35.4624 79.9235 35.1361 78.8899 35.1175 77.8281V41.2353C35.1175 39.7795 35.6958 38.3834 36.7252 37.354C37.7545 36.3246 39.1507 35.7463 40.6064 35.7463H110.133C111.589 35.7463 112.985 36.3246 114.014 37.354C115.043 38.3834 115.622 39.7795 115.622 41.2353ZM104.644 54.0428C104.644 52.5953 104.215 51.1803 103.411 49.9768C102.606 48.7733 101.463 47.8352 100.126 47.2813C98.7888 46.7274 97.3172 46.5824 95.8976 46.8648C94.4779 47.1472 93.1739 47.8442 92.1503 48.8678C91.1268 49.8913 90.4298 51.1953 90.1474 52.615C89.865 54.0347 90.0099 55.5062 90.5639 56.8435C91.1178 58.1808 92.0558 59.3238 93.2594 60.1279C94.4629 60.9321 95.8779 61.3613 97.3254 61.3613C99.2664 61.3613 101.128 60.5903 102.5 59.2178C103.873 57.8453 104.644 55.9838 104.644 54.0428ZM97.3254 50.3835C96.6016 50.3835 95.8941 50.5981 95.2924 51.0002C94.6906 51.4023 94.2216 51.9738 93.9446 52.6424C93.6676 53.3111 93.5952 54.0468 93.7364 54.7567C93.8776 55.4665 94.2261 56.1185 94.7378 56.6303C95.2496 57.142 95.9016 57.4905 96.6115 57.6317C97.3213 57.7729 98.057 57.7005 98.7257 57.4235C99.3943 57.1465 99.9659 56.6775 100.368 56.0758C100.77 55.474 100.985 54.7665 100.985 54.0428C100.985 53.0723 100.599 52.1415 99.9129 51.4553C99.2266 50.769 98.2959 50.3835 97.3254 50.3835ZM68.5817 57.9216L43.1862 83.3171H96.5752L71.1798 57.9216C71.0097 57.7501 70.8073 57.614 70.5843 57.5211C70.3614 57.4282 70.1222 57.3804 69.8807 57.3804C69.6392 57.3804 69.4 57.4282 69.1771 57.5211C68.9541 57.614 68.7518 57.7501 68.5817 57.9216Z" fill="#85D192"/>
<path d="M88.1771 2.81274H29.6286C28.1728 2.81274 26.7767 3.39104 25.7473 4.42041C24.7179 5.44979 24.1396 6.84592 24.1396 8.30167V72.3392H7.67286C6.2171 72.3392 4.82097 72.9175 3.7916 73.9468C2.76223 74.9762 2.18393 76.3723 2.18393 77.8281V81.4874C2.18393 84.8841 3.53329 88.1418 5.93516 90.5437C8.33703 92.9455 11.5947 94.2949 14.9914 94.2949H80.8586C84.2553 94.2949 87.513 92.9455 89.9148 90.5437C92.3167 88.1418 93.6661 84.8841 93.6661 81.4874V8.30167C93.6661 6.84592 93.0878 5.44979 92.0584 4.42041C91.029 3.39104 89.6329 2.81274 88.1771 2.81274ZM14.9914 90.6356C12.5652 90.6356 10.2383 89.6718 8.52267 87.9562C6.80704 86.2405 5.84322 83.9136 5.84322 81.4874V77.8281C5.84322 77.3428 6.03598 76.8775 6.37911 76.5343C6.72223 76.1912 7.18761 75.9985 7.67286 75.9985H66.2214C66.7067 75.9985 67.1721 76.1912 67.5152 76.5343C67.8583 76.8775 68.0511 77.3428 68.0511 77.8281V81.4874C68.0532 83.1925 68.3958 84.8799 69.0587 86.4508C69.7216 88.0218 70.6916 89.4445 71.9116 90.6356H14.9914ZM90.0068 81.4874C90.0068 83.9136 89.043 86.2405 87.3273 87.9562C85.6117 89.6718 83.2848 90.6356 80.8586 90.6356C78.4323 90.6356 76.1054 89.6718 74.3898 87.9562C72.6742 86.2405 71.7104 83.9136 71.7104 81.4874V77.8281C71.7104 76.3723 71.1321 74.9762 70.1027 73.9468C69.0733 72.9175 67.6772 72.3392 66.2214 72.3392H27.7989V8.30167C27.7989 7.81642 27.9917 7.35104 28.3348 7.00792C28.6779 6.6648 29.1433 6.47203 29.6286 6.47203H88.1771C88.6624 6.47203 89.1278 6.6648 89.4709 7.00792C89.814 7.35104 90.0068 7.81642 90.0068 8.30167V81.4874ZM84.5179 66.8502C84.5179 67.3355 84.3251 67.8009 83.982 68.144C83.6388 68.4871 83.1735 68.6799 82.6882 68.6799H35.1175C34.6323 68.6799 34.1669 68.4871 33.8237 68.144C33.4806 67.8009 33.2879 67.3355 33.2879 66.8502C33.2879 66.365 33.4806 65.8996 33.8237 65.5565C34.1669 65.2134 34.6323 65.0206 35.1175 65.0206H82.6882C83.1735 65.0206 83.6388 65.2134 83.982 65.5565C84.3251 65.8996 84.5179 66.365 84.5179 66.8502ZM82.6882 13.7906H35.1175C34.6323 13.7906 34.1669 13.9834 33.8237 14.3265C33.4806 14.6696 33.2879 15.135 33.2879 15.6202C33.2879 16.8644 33.2879 37.8321 33.2879 37.576C33.2879 38.0612 33.4806 38.5266 33.8237 38.8697C34.1669 39.2128 34.6323 39.4056 35.1175 39.4056H82.6882C83.1735 39.4056 83.6388 39.2128 83.982 38.8697C84.3251 38.5266 84.5179 38.0612 84.5179 37.576C84.5179 36.3318 84.5179 15.3641 84.5179 15.6202C84.5179 15.135 84.3251 14.6696 83.982 14.3265C83.6388 13.9834 83.1735 13.7906 82.6882 13.7906ZM36.9471 18.4745L54.53 26.5981L36.9471 34.7217V18.4745ZM43.4424 17.4499H74.3633L58.9029 24.5855L43.4424 17.4499ZM58.9029 28.6107L74.3633 35.7463H43.4424L58.9029 28.6107ZM63.2757 26.5981L80.8586 18.4745V34.7217L63.2757 26.5981ZM35.1175 61.3613H46.0954C46.5806 61.3613 47.046 61.1686 47.3891 60.8254C47.7322 60.4823 47.925 60.0169 47.925 59.5317V44.8945C47.614 43.4857 46.7906 43.0649 46.0954 43.0649H35.1175C34.6323 43.0649 34.1669 43.2577 33.8237 43.6008C33.4806 43.9439 33.2879 44.4093 33.2879 44.8945V59.5317C33.3101 60.0098 33.51 60.4623 33.8485 60.8007C34.1869 61.1391 34.6394 61.339 35.1175 61.3613ZM38.7768 57.702L44.2657 50.3835V57.702H38.7768ZM42.4361 46.7242L36.9471 54.0427V46.7242H42.4361Z" fill="#151A6A"/>
<path d="M64.3918 43.0649H53.4139C52.9287 43.0649 52.4633 43.2577 52.1202 43.6008C51.7771 43.944 51.5843 44.4093 51.5843 44.8946V59.5317C51.6066 60.0098 51.8065 60.4624 52.1449 60.8008C52.4833 61.1392 52.9359 61.3391 53.4139 61.3614H64.3918C64.877 61.3614 65.3424 61.1686 65.6855 60.8255C66.0287 60.4824 66.2214 60.017 66.2214 59.5317V44.8946C65.9104 43.4858 65.087 43.0649 64.3918 43.0649ZM55.2436 46.7242H60.7325L55.2436 54.0428V46.7242ZM62.5621 57.7021H57.0732L62.5621 50.3835V57.7021Z" fill="#151A6A"/>
<path d="M82.6882 43.0649H71.7103C71.2251 43.0649 70.7597 43.2577 70.4166 43.6008C70.0735 43.944 69.8807 44.4093 69.8807 44.8946V59.5317C69.903 60.0098 70.1029 60.4624 70.4413 60.8008C70.7797 61.1392 71.2323 61.3391 71.7103 61.3614H82.6882C83.1735 61.3614 83.6388 61.1686 83.982 60.8255C84.3251 60.4824 84.5178 60.017 84.5178 59.5317V44.8946C84.2068 43.4858 83.3835 43.0649 82.6882 43.0649ZM73.54 46.7242H79.0289L73.54 54.0428V46.7242ZM80.8586 57.7021H75.3696L80.8586 50.3835V57.7021Z" fill="#151A6A"/>
</svg>
